<svg width="299" height="16" viewBox="0 0 299 16" fill="none" xmlns="http://www.w3.org/2000/svg">
<path d="M112.629 9.38379V9.22656C112.629 8.69336 112.706 8.19889 112.861 7.74316C113.016 7.28288 113.24 6.88411 113.531 6.54688C113.823 6.20508 114.176 5.94076 114.591 5.75391C115.006 5.5625 115.47 5.4668 115.985 5.4668C116.505 5.4668 116.972 5.5625 117.387 5.75391C117.806 5.94076 118.161 6.20508 118.453 6.54688C118.749 6.88411 118.975 7.28288 119.13 7.74316C119.285 8.19889 119.362 8.69336 119.362 9.22656V9.38379C119.362 9.91699 119.285 10.4115 119.13 10.8672C118.975 11.3229 118.749 11.7217 118.453 12.0635C118.161 12.4007 117.808 12.665 117.394 12.8564C116.983 13.0433 116.519 13.1367 115.999 13.1367C115.479 13.1367 115.012 13.0433 114.598 12.8564C114.183 12.665 113.827 12.4007 113.531 12.0635C113.24 11.7217 113.016 11.3229 112.861 10.8672C112.706 10.4115 112.629 9.91699 112.629 9.38379ZM113.894 9.22656V9.38379C113.894 9.75293 113.937 10.1016 114.023 10.4297C114.11 10.7533 114.24 11.0404 114.413 11.291C114.591 11.5417 114.812 11.7399 115.076 11.8857C115.34 12.027 115.648 12.0977 115.999 12.0977C116.345 12.0977 116.648 12.027 116.908 11.8857C117.173 11.7399 117.391 11.5417 117.564 11.291C117.738 11.0404 117.868 10.7533 117.954 10.4297C118.045 10.1016 118.091 9.75293 118.091 9.38379V9.22656C118.091 8.86198 118.045 8.5179 117.954 8.19434C117.868 7.86621 117.735 7.57682 117.558 7.32617C117.384 7.07096 117.166 6.87044 116.901 6.72461C116.642 6.57878 116.336 6.50586 115.985 6.50586C115.639 6.50586 115.334 6.57878 115.069 6.72461C114.81 6.87044 114.591 7.07096 114.413 7.32617C114.24 7.57682 114.11 7.86621 114.023 8.19434C113.937 8.5179 113.894 8.86198 113.894 9.22656ZM122.213 6.76562V13H120.948V5.60352H122.179L122.213 6.76562ZM124.523 5.5625L124.517 6.73828C124.412 6.71549 124.312 6.70182 124.216 6.69727C124.125 6.68815 124.02 6.68359 123.901 6.68359C123.61 6.68359 123.352 6.72917 123.129 6.82031C122.906 6.91146 122.716 7.03906 122.562 7.20312C122.407 7.36719 122.284 7.56315 122.192 7.79102C122.106 8.01432 122.049 8.26042 122.021 8.5293L121.666 8.73438C121.666 8.28776 121.709 7.86849 121.796 7.47656C121.887 7.08464 122.026 6.73828 122.213 6.4375C122.4 6.13216 122.637 5.89518 122.924 5.72656C123.215 5.55339 123.562 5.4668 123.963 5.4668C124.054 5.4668 124.159 5.47819 124.277 5.50098C124.396 5.51921 124.478 5.53971 124.523 5.5625ZM135.393 11.9268V13H130.416V11.9268H135.393ZM130.676 3.04688V13H129.356V3.04688H130.676ZM136.377 9.38379V9.22656C136.377 8.69336 136.454 8.19889 136.609 7.74316C136.764 7.28288 136.988 6.88411 137.279 6.54688C137.571 6.20508 137.924 5.94076 138.339 5.75391C138.754 5.5625 139.218 5.4668 139.733 5.4668C140.253 5.4668 140.72 5.5625 141.135 5.75391C141.554 5.94076 141.91 6.20508 142.201 6.54688C142.497 6.88411 142.723 7.28288 142.878 7.74316C143.033 8.19889 143.11 8.69336 143.11 9.22656V9.38379C143.11 9.91699 143.033 10.4115 142.878 10.8672C142.723 11.3229 142.497 11.7217 142.201 12.0635C141.91 12.4007 141.556 12.665 141.142 12.8564C140.731 13.0433 140.267 13.1367 139.747 13.1367C139.228 13.1367 138.76 13.0433 138.346 12.8564C137.931 12.665 137.576 12.4007 137.279 12.0635C136.988 11.7217 136.764 11.3229 136.609 10.8672C136.454 10.4115 136.377 9.91699 136.377 9.38379ZM137.642 9.22656V9.38379C137.642 9.75293 137.685 10.1016 137.771 10.4297C137.858 10.7533 137.988 11.0404 138.161 11.291C138.339 11.5417 138.56 11.7399 138.824 11.8857C139.089 12.027 139.396 12.0977 139.747 12.0977C140.093 12.0977 140.396 12.027 140.656 11.8857C140.921 11.7399 141.139 11.5417 141.312 11.291C141.486 11.0404 141.616 10.7533 141.702 10.4297C141.793 10.1016 141.839 9.75293 141.839 9.38379V9.22656C141.839 8.86198 141.793 8.5179 141.702 8.19434C141.616 7.86621 141.483 7.57682 141.306 7.32617C141.132 7.07096 140.914 6.87044 140.649 6.72461C140.39 6.57878 140.084 6.50586 139.733 6.50586C139.387 6.50586 139.082 6.57878 138.817 6.72461C138.558 6.87044 138.339 7.07096 138.161 7.32617C137.988 7.57682 137.858 7.86621 137.771 8.19434C137.685 8.5179 137.642 8.86198 137.642 9.22656ZM149.488 5.60352H150.637V12.8428C150.637 13.4945 150.505 14.0505 150.24 14.5107C149.976 14.971 149.607 15.3197 149.133 15.5566C148.663 15.7982 148.121 15.9189 147.506 15.9189C147.251 15.9189 146.95 15.8779 146.604 15.7959C146.262 15.7184 145.924 15.584 145.592 15.3926C145.264 15.2057 144.988 14.9528 144.765 14.6338L145.428 13.8818C145.738 14.2555 146.061 14.5153 146.398 14.6611C146.74 14.807 147.077 14.8799 147.41 14.8799C147.811 14.8799 148.158 14.8047 148.449 14.6543C148.741 14.5039 148.966 14.2806 149.126 13.9844C149.29 13.6927 149.372 13.3327 149.372 12.9043V7.23047L149.488 5.60352ZM144.396 9.38379V9.24023C144.396 8.67513 144.462 8.16243 144.594 7.70215C144.73 7.2373 144.924 6.83854 145.175 6.50586C145.43 6.17318 145.738 5.91797 146.098 5.74023C146.458 5.55794 146.863 5.4668 147.314 5.4668C147.779 5.4668 148.185 5.54883 148.531 5.71289C148.882 5.8724 149.178 6.1071 149.42 6.41699C149.666 6.72233 149.86 7.09147 150.001 7.52441C150.142 7.95736 150.24 8.44727 150.295 8.99414V9.62305C150.245 10.1654 150.147 10.653 150.001 11.0859C149.86 11.5189 149.666 11.888 149.42 12.1934C149.178 12.4987 148.882 12.7334 148.531 12.8975C148.18 13.057 147.77 13.1367 147.301 13.1367C146.859 13.1367 146.458 13.0433 146.098 12.8564C145.742 12.6696 145.437 12.4076 145.182 12.0703C144.926 11.7331 144.73 11.3366 144.594 10.8809C144.462 10.4206 144.396 9.92155 144.396 9.38379ZM145.66 9.24023V9.38379C145.66 9.75293 145.697 10.0993 145.77 10.4229C145.847 10.7464 145.963 11.0312 146.118 11.2773C146.278 11.5234 146.48 11.7171 146.727 11.8584C146.973 11.9951 147.267 12.0635 147.608 12.0635C148.028 12.0635 148.374 11.9746 148.647 11.7969C148.921 11.6191 149.137 11.3844 149.297 11.0928C149.461 10.8011 149.589 10.4844 149.68 10.1426V8.49512C149.63 8.24447 149.552 8.00293 149.447 7.77051C149.347 7.53353 149.215 7.32389 149.051 7.1416C148.891 6.95475 148.693 6.80664 148.456 6.69727C148.219 6.58789 147.941 6.5332 147.622 6.5332C147.276 6.5332 146.977 6.60612 146.727 6.75195C146.48 6.89323 146.278 7.08919 146.118 7.33984C145.963 7.58594 145.847 7.87305 145.77 8.20117C145.697 8.52474 145.66 8.87109 145.66 9.24023ZM157.404 5.60352V13H156.133V5.60352H157.404ZM156.037 3.6416C156.037 3.43652 156.099 3.26335 156.222 3.12207C156.349 2.98079 156.536 2.91016 156.782 2.91016C157.024 2.91016 157.208 2.98079 157.336 3.12207C157.468 3.26335 157.534 3.43652 157.534 3.6416C157.534 3.83757 157.468 4.00618 157.336 4.14746C157.208 4.28418 157.024 4.35254 156.782 4.35254C156.536 4.35254 156.349 4.28418 156.222 4.14746C156.099 4.00618 156.037 3.83757 156.037 3.6416ZM160.699 7.18262V13H159.435V5.60352H160.631L160.699 7.18262ZM160.398 9.02148L159.872 9.00098C159.877 8.49512 159.952 8.02799 160.098 7.59961C160.243 7.16667 160.449 6.79069 160.713 6.47168C160.977 6.15267 161.292 5.90658 161.656 5.7334C162.025 5.55566 162.433 5.4668 162.88 5.4668C163.244 5.4668 163.573 5.51693 163.864 5.61719C164.156 5.71289 164.404 5.86784 164.609 6.08203C164.819 6.29622 164.979 6.57422 165.088 6.91602C165.197 7.25326 165.252 7.66569 165.252 8.15332V13H163.98V8.13965C163.98 7.75228 163.924 7.44238 163.81 7.20996C163.696 6.97298 163.529 6.80208 163.311 6.69727C163.092 6.58789 162.823 6.5332 162.504 6.5332C162.189 6.5332 161.902 6.59928 161.643 6.73145C161.387 6.86361 161.166 7.0459 160.979 7.27832C160.797 7.51074 160.654 7.77734 160.549 8.07812C160.449 8.37435 160.398 8.6888 160.398 9.02148ZM172.519 11.6875L174.419 5.60352H175.253L175.089 6.81348L173.154 13H172.341L172.519 11.6875ZM171.24 5.60352L172.86 11.7559L172.977 13H172.122L169.976 5.60352H171.24ZM177.071 11.708L178.616 5.60352H179.874L177.728 13H176.88L177.071 11.708ZM175.438 5.60352L177.297 11.585L177.509 13H176.702L174.713 6.7998L174.549 5.60352H175.438ZM182.547 5.60352V13H181.275V5.60352H182.547ZM181.18 3.6416C181.18 3.43652 181.241 3.26335 181.364 3.12207C181.492 2.98079 181.679 2.91016 181.925 2.91016C182.166 2.91016 182.351 2.98079 182.479 3.12207C182.611 3.26335 182.677 3.43652 182.677 3.6416C182.677 3.83757 182.611 4.00618 182.479 4.14746C182.351 4.28418 182.166 4.35254 181.925 4.35254C181.679 4.35254 181.492 4.28418 181.364 4.14746C181.241 4.00618 181.18 3.83757 181.18 3.6416ZM187.674 5.60352V6.57422H183.675V5.60352H187.674ZM185.028 3.80566H186.293V11.168C186.293 11.4186 186.332 11.6077 186.409 11.7354C186.487 11.863 186.587 11.9473 186.71 11.9883C186.833 12.0293 186.965 12.0498 187.106 12.0498C187.211 12.0498 187.321 12.0407 187.435 12.0225C187.553 11.9997 187.642 11.9814 187.701 11.9678L187.708 13C187.608 13.0319 187.476 13.0615 187.312 13.0889C187.152 13.1208 186.958 13.1367 186.73 13.1367C186.421 13.1367 186.136 13.0752 185.876 12.9521C185.616 12.8291 185.409 12.624 185.254 12.3369C185.104 12.0452 185.028 11.6533 185.028 11.1611V3.80566ZM190.422 2.5V13H189.157V2.5H190.422ZM190.121 9.02148L189.595 9.00098C189.599 8.49512 189.674 8.02799 189.82 7.59961C189.966 7.16667 190.171 6.79069 190.436 6.47168C190.7 6.15267 191.014 5.90658 191.379 5.7334C191.748 5.55566 192.156 5.4668 192.603 5.4668C192.967 5.4668 193.295 5.51693 193.587 5.61719C193.879 5.71289 194.127 5.86784 194.332 6.08203C194.542 6.29622 194.701 6.57422 194.811 6.91602C194.92 7.25326 194.975 7.66569 194.975 8.15332V13H193.703V8.13965C193.703 7.75228 193.646 7.44238 193.532 7.20996C193.418 6.97298 193.252 6.80208 193.033 6.69727C192.814 6.58789 192.546 6.5332 192.227 6.5332C191.912 6.5332 191.625 6.59928 191.365 6.73145C191.11 6.86361 190.889 7.0459 190.702 7.27832C190.52 7.51074 190.376 7.77734 190.271 8.07812C190.171 8.37435 190.121 8.6888 190.121 9.02148Z" fill="#767676"/>
<line y1="7.5" x2="93.5" y2="7.5" stroke="#D2D2D2"/>
<line x1="213" y1="7.5" x2="299" y2="7.50001" stroke="#D2D2D2"/>
</svg>
