<svg width="1366" height="119" viewBox="0 0 1366 119" fill="none" xmlns="http://www.w3.org/2000/svg">
<path fill-rule="evenodd" clip-rule="evenodd" d="M0 0L56.5609 4.45073C114.189 8.90145 227.311 17.8029 341.5 32.8669C455.689 48.2733 568.811 70.1845 683 74.6353C797.189 79.086 910.311 65.7338 1024.5 61.6255C1138.69 57.1747 1251.81 61.6255 1309.44 63.6796L1366 65.7338V118.458H1309.44C1251.81 118.458 1138.69 118.458 1024.5 118.458C910.311 118.458 797.189 118.458 683 118.458C568.811 118.458 455.689 118.458 341.5 118.458C227.311 118.458 114.189 118.458 56.5609 118.458H0V0Z" fill="#00FF7F" fill-opacity="0.09"/>
<path fill-rule="evenodd" clip-rule="evenodd" d="M0 47.3831L45.5333 56.8597C91.0667 66.3364 182.133 85.2896 273.2 80.5513C364.267 75.813 455.333 47.3831 546.4 28.4299C637.467 9.47663 728.533 0 819.6 0C910.667 0 1001.73 9.47663 1092.8 26.0607C1183.87 42.6448 1274.93 66.3364 1320.47 78.1822L1366 90.0279V118.458H1320.47C1274.93 118.458 1183.87 118.458 1092.8 118.458C1001.73 118.458 910.667 118.458 819.6 118.458C728.533 118.458 637.467 118.458 546.4 118.458C455.333 118.458 364.267 118.458 273.2 118.458C182.133 118.458 91.0667 118.458 45.5333 118.458H0V47.3831Z" fill="#E5E5E5" fill-opacity="0.13"/>
</svg>
