<svg width="16" height="17" viewBox="0 0 16 17" fill="none" xmlns="http://www.w3.org/2000/svg">
<path d="M15.3042 9.05457C15.1303 9.05457 14.9564 8.98066 14.8173 8.85131L7.99986 1.77414L1.18247 8.85131C0.904209 9.12849 0.469427 9.12849 0.191166 8.83283C-0.0697038 8.53718 -0.0697038 8.07522 0.208557 7.77957L7.51291 0.203486C7.79117 -0.073688 8.20856 -0.073688 8.48682 0.203486L15.7912 7.77957C16.0694 8.05675 16.0694 8.53718 15.8086 8.83283C15.6694 8.98066 15.4781 9.05457 15.3042 9.05457ZM13.7738 16.2611V9.0361C13.7738 8.62957 13.4607 8.29696 13.0781 8.29696C12.6955 8.29696 12.3825 8.62957 12.3825 9.0361V15.522H10.2086V11.5676C10.2086 11.0317 9.79117 10.5883 9.28682 10.5883H6.7129C6.20856 10.5883 5.79117 11.0317 5.79117 11.5676V15.522H3.61725V9.0361C3.61725 8.62957 3.30421 8.29696 2.9216 8.29696C2.53899 8.29696 2.22595 8.62957 2.22595 9.0361V16.2611C2.22595 16.6676 2.53899 17.0002 2.9216 17.0002H6.48682C6.86943 17.0002 7.18247 16.6676 7.18247 16.2611V12.0665H8.83464V16.2611C8.83464 16.6676 9.14769 17.0002 9.5303 17.0002H13.0955C13.4781 17.0002 13.7738 16.6676 13.7738 16.2611Z" fill="#BABABA"/>
</svg>
