<svg width="14" height="14" viewBox="0 0 14 14" fill="none" xmlns="http://www.w3.org/2000/svg">
<path d="M7 0C5.61553 0 4.26216 0.410543 3.11101 1.17971C1.95987 1.94888 1.06266 3.04213 0.532846 4.32122C0.003033 5.6003 -0.13559 7.00776 0.134506 8.36563C0.404603 9.7235 1.07129 10.9708 2.05026 11.9497C3.02922 12.9287 4.2765 13.5954 5.63437 13.8655C6.99224 14.1356 8.3997 13.997 9.67879 13.4672C10.9579 12.9373 12.0511 12.0401 12.8203 10.889C13.5895 9.73785 14 8.38447 14 7C13.9985 5.14396 13.2605 3.36438 11.948 2.05196C10.6356 0.739539 8.85605 0.00154477 7 0ZM7.58334 10.5C7.58334 10.6547 7.52188 10.8031 7.41248 10.9125C7.30309 11.0219 7.15471 11.0833 7 11.0833C6.84529 11.0833 6.69692 11.0219 6.58752 10.9125C6.47813 10.8031 6.41667 10.6547 6.41667 10.5V6.41667H5.83334C5.67863 6.41667 5.53025 6.35521 5.42086 6.24581C5.31146 6.13642 5.25 5.98804 5.25 5.83333C5.25 5.67862 5.31146 5.53025 5.42086 5.42085C5.53025 5.31146 5.67863 5.25 5.83334 5.25H7C7.15471 5.25 7.30309 5.31146 7.41248 5.42085C7.52188 5.53025 7.58334 5.67862 7.58334 5.83333V10.5ZM7.01167 4.08333C6.85696 4.08411 6.70828 4.02339 6.59834 3.91454C6.48839 3.80569 6.42619 3.65763 6.42542 3.50292C6.42465 3.34821 6.48536 3.19953 6.59421 3.08958C6.70306 2.97964 6.85113 2.91744 7.00584 2.91667H7.01167C7.16638 2.91667 7.31475 2.97812 7.42415 3.08752C7.53355 3.19692 7.595 3.34529 7.595 3.5C7.595 3.65471 7.53355 3.80308 7.42415 3.91248C7.31475 4.02187 7.16638 4.08333 7.01167 4.08333Z" fill="#797979"/>
</svg>
