<svg width="11" height="8" viewBox="0 0 11 8" fill="none" xmlns="http://www.w3.org/2000/svg">
<path fill-rule="evenodd" clip-rule="evenodd" d="M2.94668 7.71569C3.13949 7.89972 3.39626 8.00165 3.6628 7.99998C3.92934 7.99831 4.18481 7.89315 4.3753 7.70671L9.63118 2.54155C9.77192 2.40475 9.88401 2.2413 9.96091 2.06072C10.0378 1.88014 10.078 1.68606 10.0791 1.48979C10.0802 1.29353 10.0422 1.099 9.9674 0.917566C9.89255 0.736129 9.78232 0.571411 9.64314 0.43302C9.50503 0.293739 9.34033 0.183643 9.15882 0.109273C8.97732 0.0349034 8.78272 -0.00222215 8.58659 0.000102821C8.39045 0.00242779 8.19679 0.0441559 8.0171 0.122807C7.83741 0.201459 7.67536 0.315428 7.54059 0.457944L4.00742 4.12271C3.96331 4.16937 3.90999 4.20635 3.85084 4.23133C3.79168 4.2563 3.72798 4.26871 3.66378 4.26777C3.59958 4.26683 3.53627 4.25257 3.47787 4.22588C3.41947 4.19919 3.36725 4.16066 3.32452 4.11274L2.73931 3.4737C2.61032 3.32873 2.4529 3.21182 2.27683 3.13025C2.10076 3.04867 1.9098 3.00417 1.71581 2.99949C1.52182 2.99482 1.32894 3.03007 1.14914 3.10307C0.969348 3.17608 0.806482 3.28526 0.670657 3.42385C0.531946 3.56173 0.422175 3.72593 0.347788 3.90681C0.273401 4.0877 0.235896 4.28162 0.237475 4.47719C0.239053 4.67277 0.279684 4.86606 0.356981 5.04572C0.434279 5.22538 0.546686 5.38778 0.687605 5.52341L2.94668 7.71569Z" fill="white"/>
</svg>
