<svg xmlns="http://www.w3.org/2000/svg" width="407" height="339" fill="none"><path fill="#DCF4E6" d="M358.915 312.985H41.674c3.348-22.294 15.357-40.951 31.646-50.625 6.028-3.619 12.665-5.994 19.643-6.865 4.312-17.791 11.787-33.938 21.634-47.503 18.957-26.093 46.734-42.544 77.685-42.544 42.613.0 79.188 31.204 95.072 75.792 2.007-.248 4.034-.437 6.086-.437 30.013.0 54.319 29.486 54.319 65.833.0.368.0.677-.024.994 4.019 1.023 7.784 2.869 11.18 5.355"/><path fill="#93E5B6" d="M272.341 312.985h116.057c-3.063-5.528-9.572-3.814-16.58-3.961-1.309-4.133-4.939-4.046-12.757-2.774 9.905-9.032 6.815-17.907-10.459-12.122 19.73-26.861-10.856-33-15.373-33.537-5.691-.679-31.853 3.505-17.987 31.476-16.798-6.972-21.394 1.269-8.716 15.769-12.112.568-26.624 3.228-34.185 5.149m-271.451.0h202.707c-13.149-3.054-40.395-6.671-52.652-6.929-2.291-7.229-8.639-7.077-22.314-4.851 17.325-15.8 11.919-31.322-18.295-21.205 34.511-46.982-18.988-57.72-26.889-58.66-9.955-1.187-55.717 6.131-31.462 55.056-29.383-12.195-37.421 2.22-15.246 27.582-21.185.993-28.702 3.479-35.85 9.007"/><path fill="#A5A5A5" d="M64.31 78.347h261.694c11.606.0 21.009 9.405 21.009 20.985V243.02c0 11.606-9.403 21.009-21.009 21.009H64.31c-11.583.0-20.985-9.403-20.985-21.009V99.332c0-11.58 9.402-20.985 20.984-20.985"/><path fill="#CDEEFF" d="M56.107 243.025c0 .327.02.636.056.963.472 4.128 3.98 7.248 8.156 7.248H325.99c4.176.0 7.683-3.12 8.157-7.257.036-.318.054-.627.054-.954V99.338c0-.728-.102-1.459-.305-2.178a8.205 8.205.0 00-7.906-6.031H64.318c-3.684.0-6.934 2.474-7.902 6.016a8 8 0 00-.309 2.193z"/><path fill="#73FFB9" d="M266.436 71.49h-47.45l-13.988-28.905h37.305zM112.334 42.585 76.288 71.489h-47.47l39.9-28.905zm74.45.0-15.39 28.904h-47.553l25.506-28.905z"/><path fill="#A5A5A5" d="m149.571 42.585-25.73 28.904H76.279l35.899-28.905zM314.052 71.49h-47.655l-24.191-28.905h37.256z"/><path fill="#73FFB9" d="M361.498 71.49h-47.514l-34.717-28.905h43.382z"/><path fill="#A5A5A5" d="m205.076 42.585 13.959 28.904h-47.64l15.39-28.905z"/><path fill="#73FFB9" d="M76.299 71.489v18.257c0 .303.0.586-.02.89-.352 16.762-10.843 30.203-23.747 30.203s-23.415-13.441-23.747-30.204c-.03-.303-.03-.586-.03-.889V71.49z"/><path fill="#A5A5A5" d="M123.842 71.489v18.257c0 .303.0.586-.02.89-.347 16.762-10.843 30.203-23.747 30.203-12.9.0-23.405-13.441-23.757-30.204-.02-.303-.02-.586-.02-.889V71.49z"/><path fill="#73FFB9" d="M171.394 71.489v18.257c0 .303.0.586-.029.89-.352 16.762-10.848 30.203-23.742 30.203-12.91.0-23.416-13.441-23.762-30.204-.02-.303-.02-.586-.02-.889V71.49z"/><path fill="#A5A5A5" d="M218.938 71.489v18.257c0 .303.0.586-.02.89-.352 16.762-10.843 30.203-23.757 30.203-12.894.0-23.405-13.441-23.757-30.204-.009-.303-.009-.586-.009-.889V71.49z"/><path fill="#73FFB9" d="M266.47 71.489v18.257c0 .303.0.586-.01.89-.351 16.762-10.843 30.203-23.747 30.203s-23.414-13.441-23.756-30.204c-.02-.303-.02-.586-.02-.889V71.49zm95.091.0v18.257c0 .303.0.586-.015.89-.351 16.762-10.852 30.203-23.747 30.203-12.904.0-23.405-13.441-23.762-30.204-.019-.303-.019-.586-.019-.889V71.49z"/><path fill="#A5A5A5" d="M314.018 71.489v18.257c0 .303.0.586-.014.89-.352 16.762-10.848 30.203-23.748 30.203-12.904.0-23.41-13.441-23.756-30.204-.03-.303-.03-.586-.03-.889V71.49z"/><path fill="#fff" d="M28.785 90.635h-.03v-.889c0 .303.0.586.03.89m47.514-.889v.89h-.02c.02-.304.02-.587.02-.89m48.162 39.787H89.987a6.716 6.716.0 00-6.715 6.716v28.59a6.716 6.716.0 006.715 6.716h34.474a6.715 6.715.0 006.715-6.716v-28.59a6.715 6.715.0 00-6.715-6.716"/><path fill="#999" d="m98.95 168.723 21.018-3.747-4.01-30.304-18.377 1.6z"/><path fill="#696969" d="m97.58 136.272-.834.715-.61-.589-1.655 30.368 1.626.372 2.843 1.585z"/><path fill="#097C3A" d="M111.253 139.466c0 .439.254.795.568.795s.568-.356.568-.795-.254-.795-.568-.795-.568.356-.568.795m-7.121.344c0 .426.247.77.551.77s.55-.344.55-.77-.246-.771-.55-.771-.551.345-.551.771"/><path fill="#CDEEFF" d="m112.135 139.447.633 3.715c.181 1.064.415 2.138.454 3.22.07 1.945-.872 3.587-2.672 4.383-.913.404-1.922.547-2.915.536-.743-.008-1.618-.073-2.089-.733-.535-.748-.001-1.501.524-2.081.615-.678 2.057-1.244 2.001-2.293-.038-.719-.596-1.261-1.057-1.751a14 14 0 01-1.068-1.268c-.594-.802-1.552-2.01-1.434-3.073.031-.275.466-.278.435.0-.101.903.749 1.985 1.255 2.69.532.741 1.216 1.344 1.761 2.068.411.545.696 1.26.454 1.939-.242.678-.932 1.017-1.457 1.443-.369.3-.726.657-.984 1.058-.432.67-.08 1.253.631 1.463.89.263 2.056.12 2.935-.108 2.009-.52 3.296-2.075 3.249-4.172-.024-1.114-.275-2.223-.461-3.318l-.614-3.603c-.046-.273.372-.391.419-.115"/><path fill="#fff" d="M139.569 142.58h35.054a1.838 1.838.0 000-3.676h-35.054a1.838 1.838.0 100 3.676m40.976.0h4.999a1.838 1.838.0 000-3.676h-4.999a1.837 1.837.0 100 3.676m-33.32 15.93h-7.656a1.839 1.839.0 100 3.676h7.656a1.838 1.838.0 000-3.676m18.994.0h-13.071a1.838 1.838.0 100 3.676h13.071a1.838 1.838.0 000-3.676m19.325-9.803H164.38a1.838 1.838.0 000 3.675h21.164a1.837 1.837.0 000-3.675m-45.975 3.675h18.888a1.837 1.837.0 100-3.675h-18.888a1.838 1.838.0 100 3.675M124.461 185.69H89.987a6.716 6.716.0 00-6.715 6.715v28.591a6.715 6.715.0 006.715 6.715h34.474a6.715 6.715.0 006.715-6.715v-28.591a6.714 6.714.0 00-6.715-6.715"/><path fill="#A5A5A5" d="m98.95 224.878 21.018-3.747-4.01-30.304-18.377 1.601z"/><path fill="#696969" d="m97.58 192.428-.834.715-.61-.589-1.655 30.367 1.626.372 2.843 1.585z"/><path fill="#A5A5A5" d="M111.253 195.621c0 .439.254.795.568.795s.568-.356.568-.795c0-.438-.254-.794-.568-.794s-.568.356-.568.794m-7.121.344c0 .426.247.771.551.771s.55-.345.55-.771c0-.425-.246-.77-.55-.77s-.551.345-.551.77"/><path fill="#CDEEFF" d="m112.135 195.602.633 3.716c.181 1.064.415 2.137.454 3.219.07 1.945-.872 3.587-2.672 4.383-.913.404-1.922.548-2.915.536-.743-.008-1.618-.073-2.089-.733-.535-.748-.001-1.501.524-2.081.615-.678 2.057-1.243 2.001-2.293-.038-.719-.596-1.26-1.057-1.751a14 14 0 01-1.068-1.268c-.594-.802-1.552-2.01-1.434-3.073.031-.275.466-.278.435.0-.101.903.749 1.985 1.255 2.69.532.741 1.216 1.344 1.761 2.068.411.545.696 1.261.454 1.939s-.932 1.017-1.457 1.444c-.369.3-.726.656-.984 1.057-.432.67-.08 1.253.631 1.464.89.263 2.056.119 2.935-.108 2.009-.521 3.296-2.076 3.249-4.173-.024-1.113-.275-2.223-.461-3.317l-.614-3.604c-.046-.273.372-.39.419-.115"/><path fill="#fff" d="M139.569 198.736h35.054a1.838 1.838.0 000-3.677h-35.054a1.839 1.839.0 100 3.677m40.976.0h4.999a1.838 1.838.0 000-3.677h-4.999a1.838 1.838.0 000 3.677m-33.32 15.929h-7.656a1.839 1.839.0 100 3.677h7.656a1.838 1.838.0 000-3.677m18.994.0h-13.071a1.838 1.838.0 000 3.677h13.071a1.838 1.838.0 000-3.677m19.325-9.803H164.38a1.838 1.838.0 000 3.676h21.164a1.838 1.838.0 000-3.676m-45.975 3.676h18.888a1.838 1.838.0 100-3.676h-18.888a1.839 1.839.0 100 3.676m111.27-65.78v22.077a6.714 6.714.0 01-6.711 6.723h-34.472a6.716 6.716.0 01-6.722-6.723V136.25a6.714 6.714.0 016.722-6.711h29.24a1.72 1.72.0 01-1.175 1.186c-1.649.486-1.649 2.825.0 3.311a1.733 1.733.0 01.882 2.711c-.26.328-.362.69-.362 1.051.0 1.085 1.085 2.068 2.305 1.627a1.727 1.727.0 012.305 1.672c-.045 1.718 2.18 2.441 3.152 1.028a1.7 1.7.0 011.424-.757c.542.0 1.084.249 1.423.757.498.723 1.311.881 1.989.633m8.394-.178h35.054a1.838 1.838.0 000-3.676h-35.054a1.838 1.838.0 100 3.676m40.976.0h4.998a1.838 1.838.0 000-3.676h-4.998a1.837 1.837.0 100 3.676m-33.32 15.93h-7.656a1.838 1.838.0 100 3.676h7.656a1.838 1.838.0 000-3.676m18.994.0h-13.071a1.837 1.837.0 100 3.676h13.071a1.838 1.838.0 000-3.676m19.324-9.803h-21.163a1.838 1.838.0 000 3.675h21.163a1.837 1.837.0 100-3.675m-45.974 3.675h18.888a1.838 1.838.0 100-3.675h-18.888a1.838 1.838.0 100 3.675"/><path fill="#999" d="m211.473 143.056 15.278-3.246 15.277 2.242-15.008 5.175z"/><path fill="#999" d="m227.435 162.784 14.87-3.631-.276-17.101-15.062 3.204z"/><path fill="#CDEEFF" d="m218.309 141.603 4.78-.987 13.54 2.496.164 3.436-1.881.581-.349-.56-.183.794-1.437.497-.048-3.68zm16.267 19.443-.008-2.668.922-.179.203.326.107-.456 2.412-.685.283 2.702z" opacity=".5"/><path fill="#999" d="m211.473 143.056.491 17.566 15.471 2.162-.468-17.528z"/><path fill="#999" d="m211.473 143.056 15.494 2.2s-4.834.569-8.045.0c-3.21-.568-7.449-2.2-7.449-2.2"/><path fill="#fff" d="M254.035 131.254a1.175 1.175.0 01-.6-1.844c.715-.929-.221-2.218-1.325-1.825a1.175 1.175.0 01-1.569-1.14c.032-1.172-1.483-1.664-2.145-.697a1.175 1.175.0 01-1.94.0c-.662-.967-2.177-.475-2.144.697a1.176 1.176.0 01-1.57 1.14c-1.104-.393-2.04.896-1.325 1.825a1.175 1.175.0 01-.6 1.844c-1.124.332-1.124 1.924.0 2.256a1.175 1.175.0 01.6 1.844c-.715.929.221 2.217 1.325 1.825a1.176 1.176.0 011.57 1.14c-.033 1.171 1.482 1.664 2.144.697a1.175 1.175.0 011.94.0c.662.967 2.177.474 2.145-.697a1.175 1.175.0 011.569-1.14c1.104.392 2.04-.896 1.325-1.825a1.175 1.175.0 01.6-1.844c1.124-.332 1.124-1.925.0-2.256m-9.91 54.436h-34.473a6.716 6.716.0 00-6.716 6.715v28.591a6.715 6.715.0 006.716 6.715h34.473a6.716 6.716.0 006.716-6.715v-28.591a6.715 6.715.0 00-6.716-6.715m15.108 13.046h35.054a1.838 1.838.0 000-3.677h-35.054a1.839 1.839.0 100 3.677m40.976.0h4.999a1.838 1.838.0 000-3.677h-4.999a1.838 1.838.0 000 3.677m-33.32 15.929h-7.656a1.839 1.839.0 100 3.677h7.656a1.838 1.838.0 000-3.677m18.994.0h-13.071a1.838 1.838.0 000 3.677h13.071a1.838 1.838.0 000-3.677m19.325-9.803h-21.164a1.838 1.838.0 000 3.676h21.164a1.838 1.838.0 000-3.676m-45.975 3.676h18.888a1.838 1.838.0 100-3.676h-18.888a1.839 1.839.0 100 3.676"/><path fill="#999" d="M237.574 195.617h-24.701v24.701h24.701z"/><path fill="#CDEEFF" d="M229.269 220.29v-6.573l-.727.556-.428-.556-.727-.257-.759.898-.439-1.197-1.088 2.069-.708-1.727-.47.727-.599-1.069s-.203 5.075-.347 7.129c2.098.102 4.195-.118 6.292.0" opacity=".5"/><path fill="#999" d="m212.873 195.617 6.116-1.02h22.071l-3.486 1.02z"/><path fill="#999" d="M241.061 194.595v23.996l-.68.336-1.31.651-1.499.741v-24.7z"/><path fill="#CDEEFF" d="M222.582 195.617v7.4l.727-.557.428.557.727.256.759-.898.439 1.197 1.283-3.977.513 3.635.471-.727.599 1.07s.299-7.486.427-7.956l1.669-.898-1.711.213-.043-.213h-3.646zM236.978 195.291l1.746-.023.09 3.673.291-.471.111.15.264-.315.247.187.351-.332v-3.277l-1.753-.169.147.107-.276.064-.207.24zm3.404 23.636-1.311.651.066-2.277.291.471.159-.856.287.242.057-.627.361-.704zm-22.558-24.136 2.002.022-.481.175.16.089s-.561.16-.513.16.385.105.337.093c-.049-.013-.795.021-.795.021v.095l-3.084-.259z" opacity=".5"/><path fill="#263238" d="M190.514 134.67c-.059.512.215.956.598.99.382.035.725-.365.784-.869.059-.503-.216-.955-.598-.99s-.716.356-.784.869"/><path fill="#263238" d="m191.151 133.81 1.421-.244s-.813.93-1.421.244"/><path fill="#A24E3F" d="M190.71 135.217c.4 1.222.984 2.391 1.735 3.476a2.8 2.8.0 01-1.037.293 2.9 2.9.0 01-1.08-.119z"/><path fill="#263238" d="M192.16 131.968a.43.43.0 00.236-.113.3.3.0 00.094-.213.3.3.0 00-.094-.213 3.6 3.6.0 00-1.416-.688 3.8 3.8.0 00-1.613-.033.32.32.0 00-.148.194.29.29.0 00.166.337c.051.025.11.036.168.033a3.1 3.1.0 011.276.05c.415.104.797.292 1.116.55a.38.38.0 00.215.096"/><path fill="#B97964" d="M171.5 131.403c-.226 6.351-.471 9.054 2.725 12.599 4.812 5.326 13.525 4.161 15.858-2.025 2.097-5.569 2.117-15.057-4.479-18.133s-13.898 1.19-14.104 7.559"/><path fill="#263238" d="M171.813 143.402c-7.047-1.069-5.028-5.005-5.028-5.005-6.939-1.242-1.578-4.248-1.578-4.248-5.773-2.207.0-4.188.0-4.188-5.567-4.093 2.372-5.509 2.372-5.509-1.96-6.386 4.901-3.762 4.901-3.762 3.724-5.492 6.939-.252 6.939-.252 6.527-7.82 8.115-1.225 8.115-1.225 6.675-1.556 4.117 4.665 4.117 4.665 5.488 1.304 1.176 3.771 1.176 3.771 2.117 2.372-5.538 2.781-5.538 2.781s3.646 5.213.0 6.647l-9.272 6.299s-4.283-1.547-6.204.026"/><path fill="#000" d="M178.743 138.276s4.9-10.427 1.068-19.324l3.234-.982s4.225 12.938-4.302 20.306"/><path fill="#B97964" d="M183.634 137.129c.803 1.494 1.117 2.146 2.274 2.606.357.182.766.267 1.177.243a2.27 2.27.0 001.133-.373c.329-.221.576-.522.713-.867.136-.344.155-.717.054-1.07-.304-1.495-1.597-3.693-3.391-3.737a2.6 2.6.0 00-1.191.295c-.36.191-.655.464-.855.79a1.9 1.9.0 00-.283 1.067c.015.372.142.733.369 1.046m16.289 25.866s5.881 5.144 8.204 7.212l20.327-5.405c.134-.931.578-1.806 1.277-2.512.698-.707 1.619-1.211 2.644-1.45l1.431-.33 3.058-.747a3.8 3.8.0 011.74-.006 3.5 3.5.0 011.514.762c.492.43.823.985.946 1.589a2.67 2.67.0 01-.26 1.782c-.606 1.155-1.537 2.151-2.705 2.893a9 9 0 01-3.96 1.338l-2.882.27s-18.141 8.784-23.983 8.297c-5.841-.486-13.516-6.716-13.516-6.716zm-27.962-24.797c.401 4.092-.598 11.504-4.078 13.902 5.675 1.816 11.693 4.944 15.535 9.071 3.813-4.918-.519-7.725-.519-7.725-4.901-1.546-4.381-4.839-3.117-7.872z"/><path fill="#B97964" d="M178.566 158.833s6.635 4.345 9.331 6.083l19.2-8.029a4.3 4.3.0 01.844-2.666c.577-.793 1.41-1.415 2.391-1.782l1.372-.504 2.891-1.147a3.7 3.7.0 011.718-.242 3.6 3.6.0 011.624.555c.56.361.98.868 1.203 1.45.223.581.238 1.21.042 1.799-.403 1.222-1.157 2.33-2.188 3.216-1.03.887-2.303 1.521-3.693 1.841l-2.803.652s-16.456 11.052-22.337 11.312c-5.88.261-14.495-4.857-14.495-4.857z"/><path fill="#263238" d="M162.61 151.509c5.067.0 10.732 2.798 19.602 7.924-1.274 3.695-3.643 7.02-6.86 9.627.0.0-4.901-1.164-11.409-6.595-7.841-6.577-4.44-10.948-1.333-10.956"/><path fill="#B97964" d="m122.396 312.45-4.881 12.824 7.478 2.711 5.851-11.834z"/><path fill="#000" d="M127.679 327.664a.23.23.0 01-.091-.085.2.2.0 01-.027-.115.18.18.0 01.055-.102.2.2.0 01.112-.054c.156.0 3.685-.73 4.998.0.249.134.428.349.5.599.055.139.06.29.014.432a.7.7.0 01-.269.359c-.5.313-1.666.182-2.734-.113a17.4 17.4.0 01-2.558-.921m.745-.061c1.538.608 3.714 1.191 4.283.808.078-.052.176-.139.098-.408a.5.5.0 00-.107-.217.55.55.0 00-.207-.148 1.5 1.5.0 00-.372-.148 11 11 0 00-3.695.113"/><path fill="#000" d="M127.571 327.62a.17.17.0 010-.191c0-.087.98-2.085 2.362-2.607a1.8 1.8.0 011.245.0c.539.2.627.504.578.713-.118.912-2.764 1.998-3.92 2.12a.11.11.0 01-.089.0.2.2.0 01-.093.003.2.2.0 01-.083-.038m3.322-2.459a1.3 1.3.0 00-.784.0c-.872.48-1.557 1.187-1.96 2.025 1.264-.27 3.068-1.191 3.195-1.738.0-.052.0-.191-.333-.313h-.118z"/><path fill="#263238" d="m127.169 326.352-9.389-2.607a.9.9.0 00-.524.018.77.77.0 00-.398.304l-4.057 6.308a1.06 1.06.0 00-.136.888c.044.148.122.288.228.41q.16.185.388.3.12.066.255.105c3.401.869 6.469 1.529 10.683 2.693 4.979 1.356 3.528 1.538 9.35 3.215 3.509 1.008 5.391-2.372 3.921-2.954-6.577-2.607-6.645-4.657-8.527-7.551-.426-.555-1.062-.956-1.794-1.129"/><path fill="#263238" d="m120.053 318.601 7.841 3.511 2.95-5.961-8.448-3.701z" opacity=".2"/><path fill="#000" d="M155.544 193.832s-10.536 7.133-8.282 29.48c.216 2.068.98 4.232.98 6.595.0 1.573-.49 2.676-1.068 6.212-.843 5.144-2.392 24.329-4.028 26.823-1.637 2.493-2.304 2.05-6.861 8.932-4.901 7.402-11.272 20.383-16.202 42.383 3.292 2.06 7.052 3.457 11.017 4.092.0.0 26.924-37.639 32.647-51.654 5.126-12.538 11.233-52.549 11.233-52.549l.49-17.378z"/><path fill="#000" d="M167.069 223.312h-7.625s-2.509 21.27 5.783 39.013c.862-2.85 1.735-6.265 2.587-9.958l3.303-18.733c-.47-3.162-.833-5.578-.892-5.734-.166-.495-3.156-4.588-3.156-4.588" opacity=".1"/><path fill="#B97964" d="m165.815 317.611.049 13.632 8.674-.512 1.333-13.12z"/><path fill="#000" d="M175.538 330.496a.23.23.0 01-.116-.048.2.2.0 01-.061-.1.16.16.0 01.012-.114.2.2.0 01.086-.085c.138-.07 3.205-1.738 4.725-1.443.283.056.531.205.695.417a.665.665.0 01.049.826 4.28 4.28.0 01-2.626.686c-.924.028-1.85-.019-2.764-.139m.686-.269c1.676.13 3.92.043 4.342-.487.059-.069.108-.182-.059-.417a.6.6.0 00-.183-.17.6.6.0 00-.248-.082 1.6 1.6.0 00-.402.0 10.3 10.3.0 00-3.45 1.156"/><path fill="#000" d="M175.42 330.496a.21.21.0 01-.108-.174c.001-.095.167-2.259 1.275-3.128.157-.128.343-.227.545-.289.203-.063.417-.089.631-.075.588.0.784.295.813.512.226.869-1.862 2.685-2.94 3.145a.15.15.0 01-.088.0.2.2.0 01-.128.009m2.215-3.302a1.18 1.18.0 00-.725.261c-.646.708-1.03 1.576-1.098 2.485 1.088-.617 2.451-2.016 2.372-2.554.0-.053-.049-.192-.431-.209h-.118z"/><path fill="#263238" d="m174.577 329.41-9.801.313a.85.85.0 00-.485.172.7.7.0 00-.26.401l-1.49 7.143c-.066.303.006.617.201.872.195.256.496.433.838.492q.142.012.284.0c3.538-.174 6.675-.443 11.085-.574 5.205-.165 3.921.426 10.027.313 3.695-.078 4.214-3.814 2.646-3.945-7.184-.573-8.007-2.467-10.86-4.648a3.45 3.45.0 00-2.185-.539"/><path fill="#263238" d="m165.844 324.666 9.331-.174.696-6.881h-10.056z" opacity=".2"/><path fill="#000" d="M161.414 191.355s-10.516 12.347-2.724 36.493l8.821 35.267s-8.37 16.039-3.921 58.353c4.313.538 8.696.45 12.977-.26.0.0 9.801-44.686 11.281-59.779 1.637-16.63.657-66.755.657-66.755z"/><path fill="#263238" d="M167.766 151.335s-1.627-6.169 8.821-3.476c10.448 2.694 9.565 7.968 9.565 7.968z"/><path fill="#000" d="M167.766 151.335s-1.627-6.169 8.821-3.476c10.448 2.694 9.565 7.968 9.565 7.968z" opacity=".4"/><path fill="#263238" d="M193.679 166.766c0 2.163-.98 5.291-1.96 8.793-.451 1.659-.862 3.388-1.137 5.143-1.48 9.558-1.96 19.628-1.96 19.628a48.4 48.4.0 01-17.523.148c-5.791-1.018-11.283-3.083-16.134-6.065.0.0 4.107-3.084 3.264-24.45-.383-9.627-4.303-21.07 13.643-19.271 15.152 1.52 20.249 5.691 21.474 12.216v.252l.088.608q.222 1.492.245 2.998"/><path fill="#000" d="M193.68 166.766c0 2.163-.98 5.291-1.96 8.793-4.097-4.344-8.204-12.555-8.204-12.555l3.382-4.414 5.959 2.459q.308.916.49 1.859v.252l.088.608q.222 1.492.245 2.998" opacity=".4"/><path fill="#263238" d="M185.319 153.637c5.019.652 10.145 4.188 18.103 10.427-1.885 3.489-4.793 6.466-8.419 8.619.0.0-4.636-1.798-10.164-8.028-6.684-7.542-2.558-11.417.48-11.018"/><path fill="#20DF7F" d="m233.678 263.634 22.335-4.745 22.334 3.277-21.941 7.566z"/><path fill="#CDEEFF" d="m267.453 289.934-.013-3.9 1.349-.262.297.476.155-.667 3.527-1 .414 3.95z" opacity=".5"/><path fill="#20DF7F" d="m233.678 263.634 22.651 3.217s-7.067.832-11.76.0c-4.693-.831-10.891-3.217-10.891-3.217"/><path fill="#20DF7F" d="m257.013 292.474 21.737-5.308-.403-25-22.018 4.685z"/><path fill="#CDEEFF" d="m243.672 261.511 6.988-1.443 19.794 3.648.24 5.023-2.75.85-.511-.818-.267 1.16-2.1.727-.07-5.38z" opacity=".5"/><path fill="#20DF7F" d="m233.678 263.634.718 25.68 22.617 3.16-.684-25.623zM264.997 269.655l17.671-3.754 17.672 2.593-17.361 5.986z"/><path fill="#20DF7F" d="m283.46 292.474 17.199-4.2-.319-19.78-17.422 3.707z"/><path fill="#CDEEFF" d="m272.904 267.975 5.529-1.142 15.661 2.887.19 3.975-2.176.672-.404-.648-.211.919-1.662.574-.055-4.256zm18.815 22.489-.01-3.086 1.067-.207.235.377.123-.528 2.791-.791.327 3.126z" opacity=".5"/><path fill="#20DF7F" d="m264.997 269.655.568 20.319 17.895 2.5-.541-20.273z"/><path fill="#20DF7F" d="m264.997 269.655 17.922 2.546s-5.592.657-9.305.0c-3.714-.658-8.617-2.546-8.617-2.546"/><path fill="#2F627C" d="M311.386 255.923v-2.167h-10.01l2.886-16.907h-3.64l-2.405 16.907h-16.224l1.123-16.907h-3.664l-.641 16.907h-16.213l-.641-16.907h-3.664l1.123 16.907h-16.224l-2.405-16.907h-3.641l2.887 16.907h-10.011v2.167h10.381l2.453 14.372h-11.664v2.167h12.034l2.737 16.03h2.17l-2.28-16.03h14.805l1.064 16.03h2.194l-.608-16.03h14.793l-.608 16.03h2.193l1.065-16.03h14.805l-2.28 16.03h2.17l2.736-16.03h12.035v-2.167h-11.665l2.454-14.372zm-65.841 14.372-2.045-14.372h16.06l.954 14.372zm17.68.0-.545-14.372h16.048l-.545 14.372zm32.639.0h-14.97l.955-14.372h16.06z"/><path fill="#11405C" d="m223.608 239.107 8.964 48.643a4.29 4.29.0 004.22 3.514h67.824a4.29 4.29.0 004.22-3.514l8.964-48.643a4.29 4.29.0 00-4.22-5.069h-85.752a4.29 4.29.0 00-4.22 5.069m9.287-.851h75.618a4.29 4.29.0 014.22 5.069l-7.409 40.207a4.29 4.29.0 01-4.22 3.514h-60.8a4.29 4.29.0 01-4.22-3.514l-7.409-40.207a4.29 4.29.0 014.22-5.069"/><path fill="#2F627C" d="m307.856 291.009-67.137.008a6.79 6.79.0 01-6.646-5.389l-12.723-60.153-.101-.431a4.984 4.984.0 00-4.83-3.842l-17.331-.078-.211 4.25 17.003.084c.648.004 1.209.45 1.357 1.081l14.834 64.957c-4.826 1.449-8.31 6.001-8.121 11.341.219 6.189 5.505 11 11.698 11h46.839l.007-.001h4.483a2.39 2.39.0 002.389-2.521c-.065-1.251-1.272-2.264-2.524-2.264h-4.331l-.024-.002h-46.909c-3.649.0-6.78-2.855-6.847-6.504a6.627 6.627.0 016.627-6.751h72.362c1.253.0 2.459-1.014 2.525-2.264a2.393 2.393.0 00-2.389-2.521"/><path fill="#11405C" d="M282.532 315.736a7.56 7.56.0 00-6.11-3.086 7.56 7.56.0 00-6.111 3.086 7.54 7.54.0 00-1.478 4.503 7.58 7.58.0 007.589 7.589c4.196.0 7.598-3.393 7.598-7.589a7.54 7.54.0 00-1.488-4.503m-6.11 9.017a4.51 4.51.0 010-9.017c2.49.0 4.514 2.023 4.514 4.503a4.52 4.52.0 01-4.514 4.514"/><path fill="#fff" d="M280.935 320.24a4.517 4.517.0 01-4.513 4.513 4.51 4.51.0 010-9.017 4.514 4.514.0 014.513 4.504"/><path fill="#11405C" d="M278.123 320.239c0 .94-.761 1.704-1.702 1.704a1.7 1.7.0 01-1.695-1.704 1.698 1.698.0 013.397.0M254.727 315.736a7.56 7.56.0 00-6.111-3.086 7.56 7.56.0 00-6.11 3.086 7.54 7.54.0 00-1.479 4.503 7.58 7.58.0 007.589 7.589c4.196.0 7.599-3.393 7.599-7.589a7.55 7.55.0 00-1.488-4.503m-6.111 9.017a4.51 4.51.0 010-9.017 4.51 4.51.0 010 9.017"/><path fill="#fff" d="M253.12 320.239a4.51 4.51.0 01-4.504 4.514 4.51 4.51.0 010-9.017 4.506 4.506.0 014.504 4.503"/><path fill="#11405C" d="M250.316 320.239c0 .94-.761 1.704-1.701 1.704a1.7 1.7.0 01-1.696-1.704 1.7 1.7.0 011.696-1.699c.94.0 1.701.765 1.701 1.699m-58.844-95.191a1.375 1.375.0 001.407 1.449l17.469-.49 2.45-.078c.543-.017.946-.666.843-1.346l-.438-2.893c-.079-.523-.434-.91-.85-.924l-19.307-.796a1.366 1.366.0 00-1.419 1.325z"/><path fill="#20DF7F" d="M50.407 40.34c11.14.0 20.17-9.031 20.17-20.17S61.547.0 50.407.0s-20.17 9.03-20.17 20.17c0 11.139 9.03 20.17 20.17 20.17"/><path fill="#fff" d="M49.674 27.816c-1.445-.143-3.031-.806-4.097-1.8l1.231-1.847c1.113.877 2.225 1.468 3.504 1.468 1.539.0 2.297-.757 2.297-2.035.0-3.126-6.44-2.676-6.44-7.128.0-2.201 1.373-3.764 3.504-4.143V9.915h1.894v2.369c1.516.188 2.557.923 3.433 1.846l-1.397 1.586c-.876-.804-1.61-1.255-2.746-1.255-1.28.0-2.06.663-2.06 1.895.0 2.841 6.44 2.273 6.44 7.056.0 2.248-1.327 3.906-3.67 4.333v2.438h-1.894z"/><path fill="#20DF7F" d="M405.686 226.393c2.122 12.255-6.093 23.91-18.348 26.031-12.255 2.122-23.91-6.093-26.031-18.348-2.122-12.255 6.093-23.91 18.348-26.031 12.255-2.122 23.91 6.093 26.031 18.348"/><path fill="#fff" d="M384.146 238.787c-1.617.118-3.488-.309-4.85-1.2l1.003-2.266c1.391.752 2.727 1.191 4.135.948 1.692-.293 2.382-1.271 2.138-2.677-.595-3.439-7.594-1.718-8.443-6.615-.419-2.422.795-4.403 3.067-5.226l-.46-2.657 2.084-.361.451 2.605c1.703-.081 2.989.53 4.128 1.377l-1.234 2.012c-1.118-.718-2.011-1.074-3.261-.858-1.407.244-2.14 1.122-1.905 2.477.541 3.126 7.518 1.274 8.429 6.536.428 2.474-.715 4.551-3.212 5.466l.464 2.683-2.084.361z"/><path fill="#20DF7F" d="M44.669 166.935 19.83 177.938l1.301 12.005 20.986 47.4 3.369-1.477 24.828-11.001 3.358-1.49-20.998-47.391zm-8.94 13.384c-1.456.646-3.158-.025-3.808-1.474a2.904 2.904.0 011.475-3.833 2.917 2.917.0 013.832 1.477 2.92 2.92.0 01-1.499 3.83"/><path fill="#fff" d="m39.816 194.07-.865-1.946 3.372-1.486.877 1.936c3.194-.682 5.694.899 7.262 4.467l.371.816-3.912 1.738-.489-1.084c-.827-1.885-1.897-2.269-3.201-1.681-1.314.575-1.748 1.623-.924 3.504 2.393 5.398 10.594 2.083 13.914 9.613 1.568 3.554 1.044 6.536-1.616 8.426l.854 1.919-3.382 1.501-.857-1.923c-3.232.712-5.737-.915-7.314-4.482l-.786-1.806 3.89-1.714.909 2.056c.84 1.875 1.964 2.196 3.269 1.608 1.32-.581 1.852-1.622 1.018-3.502-2.393-5.412-10.59-2.093-13.904-9.601-1.57-3.532-1.1-6.436 1.514-8.359"/><path fill="#20DF7F" d="m331.338 129.684-11.75 36.895s22.343 14.793 23.31 14.025c.967-.769 20.135-34.714 20.135-34.714z"/><path fill="#fff" d="M341.544 147.763c1.567.911 2.034 2.462.649 4.085-1.368 1.632-3.26 1.813-4.827.902-1.584-.921-2.051-2.472-.683-4.104 1.385-1.623 3.293-1.794 4.861-.883m5.166 3.223 2.722 1.582-15.162 6.724-2.722-1.581zm-8.063-1.199c-.574.682-.544 1.162-.049 1.45s1.076.162 1.649-.521c.573-.682.526-1.172.031-1.46-.494-.287-1.059-.152-1.631.531m5.001 7.761c1.567.911 2.017 2.452.632 4.075-1.367 1.633-3.26 1.813-4.827.902s-2.034-2.462-.65-4.085c1.369-1.632 3.277-1.803 4.845-.892m-2.914 2.014c-.573.682-.544 1.163-.032 1.46.478.278 1.059.152 1.632-.53s.527-1.172.048-1.45c-.495-.288-1.075-.162-1.648.52"/></svg>