<svg xmlns="http://www.w3.org/2000/svg" width="373" height="509" fill="none"><path fill="#20DF7F" fill-opacity=".3" d="M297.018 508.162c66.349 2.392 131.358-29.968 163.692-87.929 31.608-56.66 19.121-125.063-13.626-181.072-32.403-55.419-85.85-98.766-150.066-98.892-64.406-.126-120.616 41.584-151.088 98.302-28.862 53.723-23.169 117.353 6.646 170.552 30.585 54.572 81.905 96.784 144.442 99.039"/><path fill="#20DF7F" fill-opacity=".3" d="M180.118 400.031c67.055.75 131.271-37.844 159.734-98.538 25.353-54.063-6.234-111.838-37.103-162.954-29.402-48.685-65.882-97.52-122.631-101.542-63.072-4.471-124.9 27.25-156.972 81.722-32.504 55.206-27.906 123.325 3.31 179.269 32.106 57.537 87.758 101.305 153.662 102.043"/><path fill="#20DF7F" fill-opacity=".3" d="M247.395-15 135.566 66.215l81.249 111.782 111.829-81.215z"/></svg>