<svg xmlns="http://www.w3.org/2000/svg" width="401" height="296" fill="none"><path fill="#F4E7E7" d="M354.588 201.628c-28.794-20.97-36.413-32.875-36.413-32.875C428.59 36.713 205.474-6.392 162.006 84.392c-18.119 37.842-55.017 37.036-117.765 48.924-57.953 10.979-56.145 70.61-8.375 117.272h345.426c8.106-28.128-13.563-39.39-26.704-48.96M138.321 55.276s-3.157-4.147-5.091-6.048c-3.484-3.422-7.48-9.472-20.259-5.013-.994.346-1.956.806-2.912 1.27-1.127.544-4.616.559-8.191-2.683-5.678-5.15-7.9-9.037-15.68-9.157-9.054-.141-10.478 12.75-17.514 16.049-4.478 2.1-16.292 4.187-18.736 5.117z"/><path fill="#7F7F7F" d="M46.885 228.416c.596.037 15.66-1.772 16.345-15.781.685-14.008-8.915-17.478-6.388-33.072s9.154-20.076-5.7-31.459c0 0-6.623-4.583-6.932-11.012-.369-7.695-13.654-16.627-22.564-11.493s-6.817 13.065.813 25.899.277 15.075-1.19 19.224c-1.465 4.149-4.866 8.503 2.922 18.42 7.787 9.917-1.49 22.025 5.139 31.521.0.0 5.817 7.029 17.555 7.753"/><path fill="#696969" d="M44.531 249.888a.635.635.0 01-.467-.735c8.092-42.758-8.404-101.069-8.57-101.652a.635.635.0 111.221-.351c.169.587 16.746 59.188 8.598 102.24a.64.64.0 01-.782.498"/><path fill="#696969" d="M41.154 170.389a.65.65.0 01-.416-.34.64.64.0 01-.009-.537c.034-.076 3.396-7.632 4.776-14.084a.636.636.0 011.244.266c-1.407 6.585-4.824 14.261-4.858 14.337a.64.64.0 01-.737.358m2.175 12.935a.6.6.0 01-.248-.127c-3.197-2.644-11.241-7.623-11.322-7.673a.633.633.0 01-.206-.875.62.62.0 01.394-.286.6.6.0 01.248-.009.7.7.0 01.233.088c.333.206 8.198 5.075 11.464 7.775a.636.636.0 01-.562 1.107m1.806 12.595a.65.65.0 01-.422-.354.63.63.0 01.01-.551l4.484-8.855a.633.633.0 01.619-.358.64.64.0 01.56.442.64.64.0 01-.044.491l-4.483 8.856a.636.636.0 01-.724.329"/><path fill="#20DF7F" d="m184.222 87.566-.557-1.588-.556 1.588c-.469 1.339-1.584 2.47-3.093 3.136 1.509.668 2.623 1.798 3.093 3.136l.556 1.589.557-1.589c.469-1.339 1.583-2.468 3.093-3.136-1.51-.667-2.624-1.797-3.093-3.136m93.251-17.965-.933-2.663-.933 2.663c-.787 2.245-2.656 4.14-5.186 5.259 2.53 1.12 4.399 3.014 5.186 5.259l.933 2.662.933-2.662c.787-2.245 2.656-4.14 5.186-5.26-2.53-1.12-4.399-3.014-5.186-5.258"/><g opacity=".5"><path fill="#7F7F7F" d="M324.583 236.661H90.395v-126.44a2.06 2.06.0 012.06-2.061h230.067a2.05 2.05.0 011.457.604 2.053 2.053.0 01.604 1.457zm10.95 13.587H79.445a2.12 2.12.0 01-2.122-2.122v-11.464h260.333v11.464a2.125 2.125.0 01-2.123 2.122"/><path fill="#fff" d="m177.064 236.661 2.741 2.636a5.84 5.84.0 004.047 1.631h47.675a5.845 5.845.0 004.388-1.988l1.999-2.279z"/><path fill="#F7F7F7" d="M99.107 116.661H315.87v112.643H99.107z"/></g><path stroke="#102236" stroke-linecap="round" stroke-linejoin="round" stroke-miterlimit="10" stroke-width=".375" d="M17.716 250.248h382.653"/><path fill="#20DF7F" d="M94.385 136.057c-11.076.0-20.086-9.011-20.086-20.086.0-11.076 9.011-20.087 20.086-20.087 11.076.0 20.087 9.011 20.087 20.087.0 11.075-9.01 20.086-20.087 20.086"/><g fill="#fff" clip-path="url(#a)"><path d="m104.667 119.296-5.13-2.188a1.7 1.7.0 00-1.652.143l-2.745 1.826a8.37 8.37.0 01-3.85-3.828l1.816-2.778a1.74 1.74.0 00.153-1.652l-2.198-5.129a1.78 1.78.0 00-1.827-1.05 6.14 6.14.0 00-5.349 6.081c0 8.684 7.066 15.75 15.75 15.75a6.15 6.15.0 006.082-5.349 1.79 1.79.0 00-1.05-1.826M97.601 107.188a7.94 7.94.0 015.567 5.567.88.88.0 00.842.656.9.9.0 00.23-.032.86.86.0 00.613-1.072 9.63 9.63.0 00-6.803-6.803.87.87.0 00-.704.046.87.87.0 00-.46.911.87.87.0 00.715.727M96.693 110.568a4.41 4.41.0 013.096 3.095.865.865.0 00.842.656.7.7.0 00.219-.033.86.86.0 00.623-1.071 6.1 6.1.0 00-4.331-4.332.88.88.0 00-.704.047.87.87.0 00-.441.55.877.877.0 00.696 1.088"/></g><path fill="#000" d="M205.862 164.426h-84.963a.61.61.0 01-.61-.61v-26.994a.62.62.0 01.178-.431.607.607.0 01.432-.179h84.962a.61.61.0 01.61.61v26.994a.62.62.0 01-.178.431.602.602.0 01-.431.179" opacity=".16"/><path fill="#20DF7F" d="M212.513 156.542h-81.492a.595.595.0 01-.597-.597v-27.019c0-.33.267-.598.597-.598h81.492c.33.0.598.268.598.598v27.019a.6.6.0 01-.598.597"/><path fill="#fff" d="M199.648 138.807h-58.359a.914.914.0 01-.916-.916c0-.507.41-.916.916-.916h58.359a.915.915.0 01.648 1.564.92.92.0 01-.648.268m-31.393 9.089h-26.966a.914.914.0 01-.916-.916c0-.506.41-.916.916-.916h26.966a.916.916.0 110 1.832"/><path fill="#B8B8B8" d="M169.194 212.963h-78.8v-29.675c0-.335.272-.606.607-.606h78.193c.334.0.606.271.606.606v29.068a.606.606.0 01-.606.607" opacity=".16"/><path fill="#20DF7F" d="M182.943 204.502H71.771a.723.723.0 01-.722-.722v-28.837c0-.399.323-.723.722-.723h111.172c.399.0.722.324.722.723v28.837a.72.72.0 01-.722.722"/><path fill="#fff" d="M170.31 185.467h-62.636a.97.97.0 01-.695-.288.97.97.0 01-.287-.695.97.97.0 01.287-.695.97.97.0 01.695-.288h62.636a.97.97.0 01.695.288.97.97.0 01.288.695.99.99.0 01-.607.908 1 1 0 01-.376.075m-33.695 9.755h-28.941a.981.981.0 110-1.965h28.941a.982.982.0 110 1.965M98.157 197.822H80.036a.643.643.0 01-.643-.643V180.84c0-.355.288-.643.643-.643h18.12c.355.0.643.288.643.643v16.339a.64.64.0 01-.642.643"/><path fill="#BFBFBF" d="M297.515 221.688h-82.368a.795.795.0 01-.795-.795v-47.687c0-.439.356-.795.795-.795h82.368c.439.0.795.356.795.795v47.687a.795.795.0 01-.795.795"/><path fill="#fff" d="M278.853 183.438h.584v29.24h-.584zm-8.825.0h.584v29.24h-.584zm-8.825.0h.584v29.24h-.584zm-8.824.0h.584v29.24h-.584zm-8.825.0h.584v29.24h-.584zm-8.825.0h.584v29.24h-.584zm-6.987 32.605h57.963v.584h-57.963z"/><path fill="#20DF7F" d="M248.299 211.706q-.352.0-.715-.088c-3.363-.827-5.097-3.916-6.493-6.397-.972-1.732-1.891-3.368-2.895-3.368-3.275.0-5.335 3.868-6.992 6.976a49 49 0 01-.907 1.655 1.1 1.1.0 01-.675.518 1.11 1.11.0 01-1.167-.404 1.11 1.11.0 01-.075-1.231c.273-.47.56-1.008.865-1.581 1.834-3.441 4.344-8.153 8.951-8.153 2.305.0 3.532 2.186 4.832 4.5 1.307 2.327 2.658 4.732 5.086 5.33.203.05.343.029.507-.08 1.435-.946 2.268-5.966 2.937-9.999 1.006-6.07 1.806-10.881 4.782-10.881q.059-.001.12.004c2.992.127 3.889 4.027 4.836 8.157.791 3.449 1.687 7.359 3.624 7.642 2.29.338 3.179-.441 4.31-1.42 1.049-.909 2.364-2.034 4.737-1.82 2.12.195 3.32 1.592 4.378 2.824 1.447 1.684 2.8 3.273 6.681 2.883.614-.038 1.154.383 1.217.992a1.115 1.115.0 01-.993 1.217c-5.026.511-7-1.794-8.589-3.644-1.069-1.244-1.73-1.953-2.898-2.062-1.441-.134-2.125.464-3.079 1.289-1.244 1.08-2.789 2.417-6.087 1.938-3.438-.502-4.469-4.995-5.465-9.34-.653-2.843-1.465-6.382-2.767-6.438h-.014c-1.105.0-2.116 6.09-2.602 9.023-.855 5.148-1.661 10.009-3.906 11.489a2.77 2.77.0 01-1.544.469M171.771 274.124l-57.225-9.018a.892.892.0 01.278-1.761l57.225 9.018a.892.892.0 01-.278 1.761m-19.209 3.86H101.07a.793.793.0 110-1.585h51.492a.795.795.0 01.792.793.795.795.0 01-.792.792"/><path fill="#F4E7E7" d="M230.503 9.862s1.584-1.821 2.554-2.655c1.749-1.504 3.753-4.16 10.163-2.202.498.152.981.354 1.461.558.565.24 2.315.245 4.108-1.178 2.849-2.262 3.963-3.969 7.866-4.022 4.542-.062 5.256 5.6 8.785 7.048 2.247.922 8.173 1.839 9.399 2.247z"/><path fill="#FA968C" d="M349.922 263.437s2.258 6.661 2.722 7.765c.383.911 1.205 1.521 1.985 2.129.249.195.497.634.708 1.004.169.298.158.649.023.964-2.365 5.491-8.767 7.398-8.891 6.969-.224-.773.792-2.249 2.15-2.941 1.367-.696 2.212-2.121 2.355-3.648a7.1 7.1.0 00-.586-3.553l-2.291-4.994zm-9.479 7.66-1.951 6.875a9.15 9.15.0 00.501 6.337 1.99 1.99.0 01.012 1.665 2 2 0 01-1.254 1.096c-3.79 1.121-11.136 3.246-11.442 2.955-1.561-1.479 2.895-3.527 6.228-5.757 2.248-1.503 3.49-9.017 4.002-14.805l3.385 1.053c.262.09.459.31.519.581"/><path fill="#7F7F7F" d="M333.157 286.288c-1.567.422-3.263.493-4.82.598a1 1 0 00-.499.173c-1.546 1.067-2.358 2.182-1.53 2.966.333.315 8.965-2.216 12.333-3.219a1.208 1.208.0 00.855-1.161 1.2 1.2.0 00-.115-.499l-.564-1.213c-1.786 1.003-3.675 1.821-5.66 2.355m8.638-92.845c4.063.784 7.29 5.696 6.28 10.925-.58 3.005-3.995 13.687-7.567 22.084-1.371 3.222-1.091 6.976.989 9.794q.494.662.853 1.406c1.161 2.45 5.358 16.778 7.76 26.317-.3 1.215-1.118 2.73-2.067 3.221-4.696-8.246-12.246-23.244-13.48-25.85-.685-1.448-1.43-3.119-1.955-4.678-3.082-4.584-1.082-29.137-.146-33.988 1.011-5.229 5.271-10.016 9.333-9.231M348.625 164.258c.248-4.489-2.373-8.285-5.853-8.477-3.481-.192-6.503 3.292-6.751 7.782s2.373 8.285 5.853 8.477c3.481.192 6.503-3.292 6.751-7.782"/><path fill="#7F7F7F" d="M343.771 164.833c.348-4.494 4.2-8.075 8.708-8.084a8.76 8.76.0 018.402 6.183c.384 1.247 1.538 2.109 2.842 2.162a7.8 7.8.0 011.656.249c3.256.856 5.659 3.78 5.821 7.143a7.78 7.78.0 01-3.767 7.08c-1.004.605-1.614 1.666-1.839 2.817-1.037 5.322-6.152 8.991-11.705 8.072-4.749-.787-8.356-4.93-8.498-9.741a10.15 10.15.0 012.953-7.493c-2.943-1.596-4.85-4.809-4.573-8.388m-.87-11.718s-3.669 2.036-3.403 5.066c0 0-1.82-1.446-1.994-6.089-.12-3.218 5.397 1.023 5.397 1.023"/><path fill="#FAB9AF" d="M339.635 171.309c-.084 1.053-.315 2.22-.941 3.376a6.3 6.3.0 01-1.275 1.583 6.2 6.2.0 01-1.71 1.036c-1.195.463-2.329.545-3.351.507a15 15 0 01-2.887-.418c-1.812-.442-3.466-1.087-5.065-1.796a52 52 0 01-4.624-2.346c-2.982-1.693-5.824-3.554-8.587-5.514s-5.438-4.02-7.97-6.299a.678.678.0 01.846-1.054l.009.006c1.337.966 2.735 1.875 4.143 2.757q2.108 1.331 4.265 2.581c2.874 1.66 5.809 3.21 8.8 4.556 1.497.664 2.998 1.301 4.511 1.836 1.509.536 3.037.98 4.507 1.224.732.125 1.449.189 2.096.167.649-.013 1.211-.139 1.57-.319.357-.19.508-.365.669-.683.146-.336.26-.846.27-1.461a2.38 2.38.0 01.745-1.69 2.37 2.37.0 012.647-.41 2.38 2.38.0 011.221 1.386c.1.301.139.619.114.936z"/><path fill="#3E3D3D" d="M337.063 186.792c-1.183-4.353-3.537-13.564-3.13-16.51a3.656 3.656.0 013.827-3.146l12.341.68a3.786 3.786.0 013.578 3.877c-.093 3.58-2.189 11.624-3.349 15.831z"/><path fill="#7F7F7F" d="M336.53 270.969a.64.64.0 01-.264-.582c.761-9.063 1.951-20.602 2.273-22.809q.055-.379.132-.744c-1.353-10.837-.375-33.922-.346-37.972.039-5.326 3.569-11.143 7.706-11.112 4.138.03 8.382 4.549 9.438 9.488.698 3.26-3.626 20.164-7.972 32.348-.915 2.565-1.188 5.3-.948 8.013.166 1.876.141 3.798-.072 5.257-.317 2.171-3.252 10.922-5.964 18.404a.6.6.0 01-.189.275.63.63.0 01-.302.143c-1.2.196-2.432.019-3.492-.709"/><path fill="#3E3D3D" d="M351.441 193.022a11.75 11.75.0 01-.253-5.625c.864-4.34 2.406-12.519 2.499-16.023a3.455 3.455.0 00-3.272-3.54l-1.829-.101c-.786 1.578-2.332 2.745-4.628 2.618-2.293-.126-3.701-1.456-4.31-3.111l-1.719-.095c1.647 4.101.685 9.338-2.697 12.239.48 2.143.865 4.294 1.146 6.036.38 2.36.021 4.777-1.018 6.929-1.787 3.698-3.371 9.7-3.131 12.126 12.779 4.396 22.116-1.622 22.116-1.622z"/><path fill="#FAB9AF" d="m342.068 168.225 5.631-.279-1.434-6.224-3.645.249z"/><path fill="#FA968C" d="m342.619 161.971 3.646-.249.448 1.943c-.861.87-2.012 2.786-3.33 2.713a2.1 2.1.0 01-1.123-.397z"/><path fill="#FAB9AF" d="M342.331 164.925c1.23.067 2.593-.474 4.513-1.973 1.103-.861 1.97-2.42 2.03-3.503l.33-5.987-9.218-.508s-.867 3.14-.369 6.332c.374 2.394 1.747 5.586 2.714 5.639"/><path fill="#FAB9AF" d="M347.374 158.231c-.064 1.168.443 2.146 1.133 2.184.689.038 1.534-1.451 1.599-2.619s-.676-1.573-1.366-1.611-1.301.877-1.366 2.046"/><path fill="#7F7F7F" d="M350.301 154.251a3.39 3.39.0 00-3.199-3.571l-3.111-.17a5.1 5.1.0 01-2.473-.801c-1.063-.683-2.462-.552-3.267.423-.87 1.053-1.301 2.504.676 3.979.983.733 2.517.066 3.492.445.062.001.117-.006.181-.002l2.742.151c.952.053 1.639.872 1.614 1.826a1.115 1.115.0 001.058 1.147l.121.007.517-1.383 1.417 2.148z"/><path fill="#FAB9AF" d="M303.762 157.664s1.477 2.896.742 3.64-1.365 1.109-2.488.08-2.172-2.975-2.568-4.268c-.397-1.294-.145-3.741.055-3.985.728-.889 1.199 1.529 1.484 2.688.286 1.16.724 2.441 1.243 2.146s-.195-2.475.289-3.01c.482-.534 1.243 2.709 1.243 2.709m26.727 37.322s3.232-.347 3.665.606c.433.951.549 1.67-.812 2.351-1.362.682-3.555.969-4.904.877-1.35-.091-3.547-1.199-3.703-1.473-.572-.997 1.855-.574 3.04-.428 1.185.147 2.538.196 2.448-.395-.091-.59-2.381-.701-2.709-1.343-.327-.642 2.975-.195 2.975-.195"/><path fill="#7F7F7F" d="M340.68 152.887c.234 1.385-.263 2.108 4.102 4.489 4.365 2.382 5.834 1.549 7.108 3.924.0.0-.402-3.841-2.806-5.284s-6.651-2.534-7.861-5.635c-.001-.001-.702 1.56-.543 2.506"/><path fill="#FAB9AF" d="M353.2 170.589a36 36 0 011.645 2.721q.76 1.367 1.423 2.782c.873 1.897 1.636 3.862 2.199 5.934.544 2.073.892 4.265.749 6.572-.082 1.15-.301 2.329-.724 3.47a9.4 9.4.0 01-1.9 3.128 10.5 10.5.0 01-2.822 2.178c-1.022.547-2.083.928-3.14 1.209-1.06.278-2.118.433-3.168.551-1.05.084-2.094.132-3.126.104-4.13-.068-8.112-.795-12.004-1.745a.677.677.0 01.233-1.332l.008.001c3.92.422 7.86.709 11.676.403 1.9-.161 3.767-.473 5.46-1.051 1.683-.588 3.161-1.485 4.078-2.701.931-1.201 1.337-2.721 1.354-4.388.009-1.669-.372-3.434-.923-5.168-.544-1.742-1.285-3.466-2.137-5.144a50 50 0 00-1.337-2.493 51 51 0 00-1.451-2.364l-.031-.046a2.366 2.366.0 013.938-2.621"/><path fill="#7F7F7F" d="M341.529 153.19s-.424 4.597-4.572 6.588c0 0 1.966-3.384 1.971-5.668.005-2.283 2.953-2.479 2.601-.92m15.226 123.789a.82.82.0 00.069-1.069c-.2-.265-.73-.992-1.128-1.538a.394.394.0 00-.667.054c-1.596 2.914-4.114 5.116-7.254 5.374-1.048.627-1.778 2.134-1.601 2.747.042.144 1.424.24 2.923-.512 6.658-3.339 7.658-5.056 7.658-5.056"/><path fill="#20DF7F" d="M299.868 159.239c11.284.0 20.432-9.147 20.432-20.432s-9.148-20.432-20.432-20.432-20.432 9.148-20.432 20.432c0 11.285 9.148 20.432 20.432 20.432"/><path fill="#fff" d="M299.243 126.704a11.885 11.885.0 0111.875 11.875 11.74 11.74.0 01-3.05 7.937l2.863 2.875a.59.59.0 01.137.675.62.62.0 01-.575.388h-11.25a11.876 11.876.0 010-23.75m5 14.375a1.26 1.26.0 001.155-.772 1.248 1.248.0 00-.911-1.704 1.244 1.244.0 00-1.494 1.226 1.254 1.254.0 001.25 1.25m-5 0a1.26 1.26.0 001.155-.772 1.248 1.248.0 00-.911-1.704 1.244 1.244.0 00-1.494 1.226 1.254 1.254.0 001.25 1.25m-5 0a1.26 1.26.0 001.155-.772 1.248 1.248.0 00-.911-1.704 1.244 1.244.0 00-1.494 1.226 1.254 1.254.0 001.25 1.25"/><path fill="#20DF7F" d="M330.771 87.132c11.285.0 20.432-9.148 20.432-20.432s-9.147-20.432-20.432-20.432-20.432 9.148-20.432 20.432 9.148 20.432 20.432 20.432"/><g clip-path="url(#b)"><path fill="#fff" d="M328.57 72.044a.55.55.0 01-.515-.358.55.55.0 01-.037-.22q.023-1.153.245-2.286c.156-.777.44-1.522.842-2.204a8.1 8.1.0 011.619-1.903q.768-.653 1.457-1.39c.389-.414.721-.878.986-1.382a3.3 3.3.0 00.362-1.546 3.16 3.16.0 00-.678-2.214 2.613 2.613.0 00-2.018-.732 3 3 0 00-1.937.705 2.57 2.57.0 00-.857 1.808.56.56.0 01-.179.36.55.55.0 01-.371.146h-4.406a.554.554.0 01-.551-.6 7.34 7.34.0 011.126-3.663 6.63 6.63.0 012.985-2.46 10.6 10.6.0 014.19-.796 8.98 8.98.0 016.017 1.847 6.65 6.65.0 012.162 5.343 6.06 6.06.0 01-.615 2.808 9.5 9.5.0 01-1.62 2.242 69 69 0 01-2.198 2.177 4.73 4.73.0 00-1.385 1.903 7.2 7.2.0 00-.364 1.9.56.56.0 01-.175.366.55.55.0 01-.375.149zm-1.139 5.138a2.82 2.82.0 01.832-2.076 3.01 3.01.0 012.226-.833 2.97 2.97.0 012.217.833c.528.557.823 1.3.823 2.072s-.295 1.514-.823 2.072a2.951 2.951.0 01-2.217.842 2.98 2.98.0 01-2.226-.842 2.8 2.8.0 01-.832-2.068"/></g><path fill="#20DF7F" d="M213.184 87.29c16.18.0 29.296-13.117 29.296-29.297s-13.116-29.296-29.296-29.296-29.296 13.116-29.296 29.296 13.116 29.296 29.296 29.296"/><path fill="#fff" fill-rule="evenodd" d="M226.597 65.897c-.302.177-.655.28-1.031.28h-24.764c-.376.0-.729-.103-1.031-.28l8.262-8.263 2.04 2.04c.788.787 1.835 1.18 3.111 1.18 1.275.0 2.323-.393 3.111-1.18l2.039-2.04zm.729-.729-8.263-8.263 8.263-8.262c.177.302.279.655.279 1.031v14.463c0 .376-.102.729-.279 1.031m-28.284.0a2.03 2.03.0 01-.28-1.031V49.674c0-.376.102-.729.28-1.031l8.263 8.263zm27.555-17.254-11.03 11.03c-.586.586-1.369.88-2.383.88s-1.797-.294-2.383-.88l-11.03-11.03c.302-.178.655-.28 1.031-.28h24.764c.376.0.729.102 1.031.28" clip-rule="evenodd"/><path fill="#20DF7F" d="M197.393 276.723h37.935v5.41h-37.935z"/><path fill="#20DF7F" d="M216.361 287.791c-8.85.0-16.049-4.965-16.049-11.068s7.2-11.067 16.049-11.067 16.049 4.965 16.049 11.067-7.199 11.068-16.049 11.068"/><path fill="#20DF7F" d="M216.361 269.053c-10.476.0-18.968 5.856-18.968 13.079s8.493 13.081 18.968 13.081 18.967-5.857 18.967-13.081c.001-7.223-8.491-13.079-18.967-13.079"/><path fill="#20DF7F" d="M216.361 289.804c10.475.0 18.968-5.857 18.968-13.081s-8.493-13.08-18.968-13.08c-10.476.0-18.968 5.856-18.968 13.08s8.492 13.081 18.968 13.081"/><path fill="#fff" d="M217.01 269.127a2.08 2.08.0 011.504.587c.403.381.618.907.618 1.463.0 1.133.937 2.051 2.102 2.051.36.0.72-.104 1.041-.279.998-.537 2.244-.196 2.811.762l.701 1.206c.176.309.278.659.278 1.019a2.03 2.03.0 01-1.05 1.772 2.06 2.06.0 00-.773.753 2.02 2.02.0 00.773 2.75 2.037 2.037.0 01.772 2.781l-.701 1.165a2.09 2.09.0 01-1.803 1.03 2.05 2.05.0 01-1.049-.279 2.26 2.26.0 00-1.052-.278c-.556.0-1.092.217-1.482.607-.403.383-.62.907-.62 1.453.0 1.123-.936 2.039-2.101 2.039h-1.41a2.08 2.08.0 01-1.464-.607 2.03 2.03.0 01-.596-1.442c0-1.134-.929-2.05-2.092-2.05-.382.0-.753.103-1.072.299a2.2 2.2.0 01-1.597.205 2.15 2.15.0 01-1.277-.958l-.658-1.164a2 2 0 01-.258-1.607 2.09 2.09.0 011.019-1.287c.321-.175.587-.433.773-.752a2.04 2.04.0 00-.773-2.751 2.006 2.006.0 01-.761-2.75l.658-1.154a2.125 2.125.0 012.895-.762c.329.175.69.268 1.051.268.557.0 1.091-.216 1.483-.598.391-.381.609-.906.609-1.442.0-1.133.936-2.05 2.1-2.05zm.413 7.707a2.94 2.94.0 00-3.163.606 2.78 2.78.0 00-.629 3.081 2.88 2.88.0 002.668 1.75h.011a2.83 2.83.0 002.039-.824 2.77 2.77.0 00.855-1.998c.01-1.143-.7-2.184-1.781-2.615"/><defs><clipPath id="a"><path fill="#fff" d="M80.386 101.971h28v28h-28z"/></clipPath><clipPath id="b"><path fill="#fff" d="M322.531 53.309h16.482v26.783h-16.482z"/></clipPath></defs></svg>