<svg xmlns="http://www.w3.org/2000/svg" width="1365" height="252" fill="none"><path fill="url(#a)" d="M1365 252V53c-91.07 8.33-182.13 19.864-273.2 34.6-91.07 14.735-182.133 9.84-273.2-14.684Q682 36.13 545.4 117.94t-273.2-15.86T-1 133.988V252z" opacity=".4"/><path fill="url(#b)" d="M1365 252V.368c-91.07.238-182.13 3.855-273.2 10.852-91.07 6.998-182.133 30.257-273.2 69.78Q682 140.284 545.4 94.953t-273.2-2.908T-1 134.895V252z" opacity=".4"/><path fill="url(#c)" d="M1365 252V56.597c-91.07-6.783-182.13-3.973-273.2 8.428S909.667 85.582 818.6 89.49Q682 95.355 545.4 144.704t-273.2 10.451T-1 176.237V252z" opacity=".4"/><path fill="url(#d)" d="M1365 252V31c-91.07.885-182.13 5.425-273.2 13.62s-182.133 10.827-273.2 7.9Q682 48.126 545.4 92.257q-136.6 44.133-273.2 15.064T-1 103.489V252z" opacity=".4"/><defs><linearGradient id="a" x1="1365" x2="-1" y1="252" y2="252" gradientUnits="userSpaceOnUse"><stop stop-color="#20DF7F"/><stop offset="1" stop-color="#20DF7F"/></linearGradient><linearGradient id="b" x1="1365" x2="-1" y1="252" y2="252" gradientUnits="userSpaceOnUse"><stop stop-color="#20DF7F"/><stop offset="1" stop-color="#007E3F"/></linearGradient><linearGradient id="c" x1="1365" x2="-1" y1="252" y2="252" gradientUnits="userSpaceOnUse"><stop stop-color="#20DF7F"/><stop offset="1" stop-color="#007E3F"/></linearGradient><linearGradient id="d" x1="1365" x2="-1" y1="252" y2="252" gradientUnits="userSpaceOnUse"><stop stop-color="#20DF7F"/><stop offset="1" stop-color="#007E3F"/></linearGradient></defs></svg>