<svg xmlns="http://www.w3.org/2000/svg" width="413" height="412" fill="none"><path fill="#999" stroke="#263238" stroke-linecap="round" stroke-linejoin="round" d="m244.169 333.169-7.168-1.067v-37.046l7.168.803z"/><path fill="#fff" stroke="#263238" stroke-linecap="round" stroke-linejoin="round" d="M405.31 313.881 75.84 277.042V66.404L405.31 21.49z"/><path fill="#999" stroke="#263238" stroke-linecap="round" stroke-linejoin="round" d="M408.124 21.112 73.01 66.81c-2.312.321-4.194-.945-4.194-2.919v-3.22c0-1.89 1.882-3.779 4.194-4.119l335.114-49.77c2.312-.349 4.194 1.578 4.194 4.299v4.534a5.7 5.7.0 01-1.153 3.549 5.2 5.2.0 01-3.041 1.948"/><path stroke="#fff" stroke-linecap="round" stroke-linejoin="round" d="m399.19 11.96 5.86-.889M383.447 14.34l8.961-1.351M103.573 56.401l274.588-41.287M76.102 60.538l20.384-3.07"/><path fill="#20DF7F" d="m272.914 292.653-56.038-5.317v-83.434l56.082-.132z"/><path fill="#fff" d="m272.914 292.653-56.038-5.317v-83.434l56.082-.132z" opacity=".8"/><path fill="#20DF7F" d="m328.996 297.971-56.082-5.317v-88.847l56.082-.122z"/><path fill="#fff" d="m328.996 297.971-56.082-5.317v-88.847l56.082-.122z" opacity=".6"/><path fill="#20DF7F" d="m385.07 303.289-56.074-5.318v-94.324l56.074-.132z"/><path fill="#fff" d="m385.07 303.289-56.074-5.318v-94.324l56.074-.132z" opacity=".4"/><path stroke="#7F7F7F" stroke-linecap="round" stroke-linejoin="round" d="m385.069 203.515-168.193.387m0 11.92 168.238 1.946M385.069 232.022l-168.193-4.279m0 11.958 168.238 6.612M385.069 260.529l-168.193-8.955m0 11.921 168.238 11.287M385.069 289.036l-168.193-13.621m0 11.921 168.238 15.953m-154.26-14.622v-84.803M216.876 203.902v83.434M258.891 291.322v-87.515M244.877 203.807v86.155M286.937 293.985v-90.244M272.914 203.807v88.884M314.974 296.64v-92.965M300.95 203.704v91.623m42.06 3.976v-95.694M328.996 203.647v94.324M371.056 301.957v-98.414M357.033 203.581v97.054m28.036-97.12v99.774"/><path stroke="#263238" stroke-linecap="round" stroke-linejoin="round" d="M216.876 203.902v83.433l168.238 15.954v-99.774z"/><path fill="#263238" d="m223.847 287.638-4.211-.397v-23.926l4.211.284z"/><path fill="#20DF7F" d="m228.05 288.044-4.202-.406v-36.045l4.202.227z"/><path fill="#263238" d="m237.861 288.97-4.203-.397v-42.505l4.203.188z"/><path fill="#20DF7F" d="m242.073 289.366-4.212-.396v-48.844l4.212.161z"/><path fill="#263238" d="m251.884 290.292-4.202-.397v-37.046l4.202.227z"/><path fill="#20DF7F" d="m256.086 290.708-4.202-.397v-43.45l4.202.189z"/><path fill="#263238" stroke="#263238" stroke-linecap="round" stroke-linejoin="round" d="m265.907 291.652-4.212-.396v-25.107l4.212.283z"/><path fill="#20DF7F" stroke="#20DF7F" stroke-linecap="round" stroke-linejoin="round" d="m270.11 292.011-4.203-.397v-30.226l4.203.255z"/><path fill="#263238" d="m279.92 292.937-4.202-.397v-43.006l4.202.198z"/><path fill="#20DF7F" d="m284.132 293.333-4.211-.396v-35.063l4.211.237z"/><path fill="#263238" d="m293.935 294.259-4.203-.396v-37.292l4.203.227z"/><path fill="#20DF7F" d="m298.146 294.656-4.203-.397v-43.865l4.203.198z"/><path fill="#263238" d="m307.966 295.582-4.211-.397v-46.624l4.211.189z"/><path fill="#20DF7F" d="m312.168 295.978-4.202-.396v-43.347l4.202.208z"/><path fill="#263238" d="m321.98 296.904-4.203-.397v-57.429l4.203.151z"/><path fill="#20DF7F" d="m326.192 297.32-4.212-.407v-64.514l4.212.123z"/><path fill="#263238" d="m336.048 298.264-4.202-.396v-54.086l4.202.16z"/><path fill="#20DF7F" d="M340.205 240.787v57.846l-4.157-.369v-57.618z"/><path fill="#263238" d="m350.026 299.558-4.212-.396v-62.153l4.212.132z"/><path fill="#20DF7F" d="m354.228 299.955-4.203-.397v-61.132l4.203.132z"/><path fill="#263238" d="m364.04 300.881-4.202-.397v-72.118l4.202.095z"/><path fill="#20DF7F" d="m368.251 301.277-4.211-.396v-76.397l4.211.076z"/><path fill="#263238" d="m378.063 302.203-4.211-.397V217.22l4.211.048z"/><path fill="#20DF7F" d="m382.265 302.6-4.203-.397v-88.515h4.203z"/><path fill="#fff" stroke="#263238" stroke-linecap="round" stroke-linejoin="round" d="m274.106 248.533-12.195-.567a2.6 2.6.0 01-1.809-.724 2.9 2.9.0 01-.879-1.817v-8.199c.028-.34.12-.671.271-.973a2.6 2.6.0 01.608-.786c.251-.216.54-.378.85-.475.311-.097.637-.127.959-.089l12.195.387a2.56 2.56.0 011.822.708 2.84 2.84.0 01.866 1.833v8.369a2.7 2.7.0 01-.264.979c-.15.305-.357.574-.608.792s-.541.38-.854.477a2.3 2.3.0 01-.962.085"/><path fill="#263238" d="M262.735 244.83a1.65 1.65.0 01-1.055-.622 1.82 1.82.0 01-.379-1.21v-.463h1.255v.567c0 .462.259.67.681.689.421.019.681-.17.681-.652.0-.481-.242-.944-1.129-1.596-1.076-.803-1.452-1.417-1.452-2.239a1.63 1.63.0 01.364-1.152c.13-.158.288-.286.466-.379.177-.092.37-.146.568-.159v-.652h1.075v.652c.411.058.785.279 1.048.618s.394.768.368 1.205v.264h-1.246v-.293a.639.639.0 00-.172-.515.569.569.0 00-.491-.174c-.421.0-.654.179-.654.614.0.434.242.878 1.129 1.549 1.075.822 1.452 1.426 1.452 2.295a1.65 1.65.0 01-.369 1.189 1.5 1.5.0 01-.48.388 1.45 1.45.0 01-.585.161v.756h-1.075z"/><path fill="#999" stroke="#263238" stroke-linecap="round" stroke-linejoin="round" d="M272.636 242.28v-4.959l-2.921-.104v4.94l-2.088-.076c1.425 1.691 2.132 2.541 3.584 4.241l3.539-3.967z"/><path fill="#fff" stroke="#263238" stroke-linecap="round" stroke-linejoin="round" d="m351.916 229.311-12.204-.293a2.62 2.62.0 01-1.851-.776c-.5-.499-.8-1.182-.837-1.907v-8.926c.031-.72.331-1.398.835-1.885a2.5 2.5.0 011.853-.712l12.204.113a2.61 2.61.0 011.855.779c.501.501.799 1.186.833 1.913v9.068c-.009.36-.086.714-.227 1.042-.14.328-.342.623-.592.867a2.5 2.5.0 01-.866.557 2.4 2.4.0 01-1.003.16"/><path fill="#263238" d="M340.528 225.58a1.7 1.7.0 01-1.073-.686 1.9 1.9.0 01-.352-1.27v-.538h1.246v.623a.668.668.0 00.18.538q.1.106.234.156a.6.6.0 00.276.034.57.57.0 00.515-.182.664.664.0 00.166-.546c0-.585-.242-1.01-1.129-1.7-1.076-.85-1.452-1.511-1.452-2.399a1.8 1.8.0 01.335-1.238 1.63 1.63.0 011.054-.651v-.69h1.084v.718c.426.073.809.313 1.072.673s.386.812.344 1.264v.226h-1.246v-.321a.67.67.0 00-.16-.54.59.59.0 00-.503-.197.58.58.0 00-.494.178.6.6.0 00-.142.24.7.7.0 00-.027.281c0 .539.242.945 1.129 1.653 1.084.85 1.461 1.512 1.461 2.447.036.448-.093.894-.359 1.246a1.65 1.65.0 01-1.075.643v.812h-1.084z"/><path fill="#999" stroke="#263238" stroke-linecap="round" stroke-linejoin="round" d="M347.517 221.575v5.365l2.921.066v-5.384h2.088l-3.584-4.515-3.54 4.402z"/><path fill="#20DF7F" stroke="#263238" stroke-linecap="round" stroke-linejoin="round" d="M299.104 165.568a45.5 45.5.0 0011.397 1.105c21.549-.614 41.119-17.673 41.217-39.955.063-21.357-20.322-37.66-41.217-34.505v37.235a8922 8922 0 01-11.397 36.12"/><path fill="#999" stroke="#263238" stroke-linecap="round" stroke-linejoin="round" d="M310.502 129.448V92.213c-20.116 2.172-41.513 18.806-41.218 39.955.251 15.954 13.727 30.425 29.784 33.4a5782 5782 0 0011.434-36.12"/><path stroke="#263238" stroke-linecap="round" stroke-linejoin="round" d="M295.556 114.25a2.5 2.5.0 00-.271-.956 2.4 2.4.0 00-.617-.756 2.2 2.2.0 00-.854-.427 2.16 2.16.0 00-.946-.024 2.68 2.68.0 00-1.814.765 2.96 2.96.0 00-.874 1.842v1.492c.027.335.12.66.274.954.153.295.362.553.615.757s.544.351.853.431c.31.079.632.09.946.031a2.68 2.68.0 001.814-.766c.495-.48.806-1.135.874-1.841M288.074 142.965v4.826c.02.225.083.442.185.64s.24.372.408.511a1.506 1.506.0 001.199.342v0a1.74 1.74.0 001.2-.475c.331-.308.542-.735.592-1.197v-12.157c.021-.315.15-.611.363-.833a1.2 1.2.0 01.793-.376 1.02 1.02.0 01.854.197 1.13 1.13.0 01.428.805v12.279c.018.225.08.444.181.642.102.199.241.375.408.515a1.512 1.512.0 001.203.345c.443.003.871-.168 1.202-.478.331-.311.541-.739.59-1.204v-11.788M288.074 139.8v1.417"/><path stroke="#263238" stroke-linecap="round" stroke-linejoin="round" d="M297.661 133.84v-9.578a.63.63.0 01.192-.392.56.56.0 01.391-.156v0a.47.47.0 01.385.103q.082.068.131.164a.5.5.0 01.057.206v5.667c.017.345.161.669.403.903.241.233.56.357.888.344.38.029.755-.098 1.048-.356.292-.257.479-.624.52-1.023v-6.83c0-1.794-1.622-3.126-3.629-2.975l-10.358.794c-2.007.16-3.585 1.709-3.585 3.476v6.611c.019.343.165.664.406.894s.56.35.885.334c.377.032.752-.092 1.045-.345.292-.254.48-.618.523-1.015v-5.667a.64.64.0 01.19-.396.58.58.0 01.392-.161v0a.48.48.0 01.383.106.554.554.0 01.191.366v13.451m42.489-25.919c.189 1.19.466 2.909.466 2.909l-6.397.5.636-4.061a3.3 3.3.0 01.871-1.777 3.05 3.05.0 011.692-.906 2.44 2.44.0 011.687.617c.472.416.784.999.875 1.641M336.137 127.426v-7.055c0-1.89-1.631-3.24-3.629-3.089M332.123 138.714v-2.361l2.043-.123c-.815-5.771-1.228-8.662-2.043-14.414a.64.64.0 01.182-.405.57.57.0 01.392-.171.47.47.0 01.389.112.54.54.0 01.184.379v5.866c.009.351.15.685.392.927s.565.374.898.367M332.123 141.765v-1.634M321.827 135.181c-.099.699-.143 1.049-.242 1.748l2.043-.123v9.238c.015.228.075.451.174.655.1.203.237.383.405.529s.362.254.57.319c.209.064.427.083.643.055a1.74 1.74.0 001.216-.495c.332-.32.538-.76.576-1.233v-9.276l1.326-.075v9.275c.016.229.075.452.174.655.1.204.238.384.405.53a1.54 1.54.0 001.213.374c.452.001.887-.177 1.219-.499s.537-.765.573-1.239v-2.21M329.408 117.518l-6.165.472a3.64 3.64.0 00-2.437 1.078 4.02 4.02.0 00-1.147 2.512v6.885c.012.341.148.664.38.902s.542.371.866.374a1.42 1.42.0 001.062-.363c.296-.263.48-.639.515-1.045v-5.856a.65.65.0 01.183-.402.59.59.0 01.39-.174v0a.48.48.0 01.389.113.52.52.0 01.185.378l-1.389 9.918"/><path fill="#999" stroke="#263238" stroke-linecap="round" stroke-linejoin="round" d="m366.745 123.318-4.552.311a2.7 2.7.0 01-1.173-.087 2.8 2.8.0 01-1.04-.578 3 3 0 01-.731-.97 3.1 3.1.0 01-.3-1.198v-4.279a3.66 3.66.0 011.018-2.317 3.3 3.3.0 012.226-1.008l4.552-.359c.392-.058.791-.03 1.172.084s.735.311 1.04.578.553.598.729.972.276.782.293 1.2v4.354a3.62 3.62.0 01-1.014 2.306 3.27 3.27.0 01-2.22.991"/><path fill="#263238" d="m377.74 120.087-2.778.199v-1.276c1.066-2.484 1.595-3.721 2.688-6.215l1.586-.123v6.036h.681v1.275h-.681v1.625l-1.461.104zm0-1.275v-3.476a445 445 0 01-1.425 3.58zM380.562 119.35v-.708l1.371-.094v.802c0 .643.296.851.762.813s.752-.284.752-.945v-2.012c0-.642-.295-.869-.752-.831s-.762.293-.762.945v.075l-1.371.104c.108-2.012.161-3.013.26-5.016l3.835-.302v1.285l-2.536.189c-.045.859-.071 1.294-.116 2.153.135-.223.32-.408.539-.538.218-.13.464-.201.715-.208 1.066-.075 1.613.614 1.613 1.936v2.031c.027.313-.01.629-.108.926a2.2 2.2.0 01-.459.796 2.1 2.1.0 01-.731.525 2 2 0 01-.87.162 1.7 1.7.0 01-.844-.03 1.8 1.8.0 01-.737-.433 1.9 1.9.0 01-.467-.741 2 2 0 01-.094-.884M385.812 115.714v-2.248a1.5 1.5.0 01.075-.596c.064-.191.166-.365.299-.512.133-.146.294-.261.472-.337a1.3 1.3.0 01.561-.104c.18-.043.367-.039.546.011.178.05.342.144.479.274s.242.294.307.476.088.377.066.57v2.258a1.48 1.48.0 01-.368 1.107 1.4 1.4.0 01-.47.338 1.3 1.3.0 01-.56.104 1.1 1.1.0 01-.548-.013 1.15 1.15.0 01-.483-.276 1.25 1.25.0 01-.309-.478 1.3 1.3.0 01-.067-.574m1.882-.076v-2.38c0-.397-.188-.548-.475-.529-.286.019-.484.208-.484.604v2.381c0 .396.18.548.484.529.305-.019.475-.208.475-.605m2.876-3.854.896-.066c-1.433 3.722-2.15 5.583-3.584 9.285l-.896.066c1.434-3.702 2.151-5.554 3.584-9.275zm-.699 7.765v-2.258a1.5 1.5.0 01.071-.594 1.45 1.45.0 01.297-.51c.133-.145.293-.26.471-.335.177-.075.368-.109.559-.101a1.1 1.1.0 011.036.284c.138.132.244.297.309.481.064.184.086.382.062.577v2.257c.015.202-.01.404-.074.595-.065.19-.167.364-.3.509s-.294.26-.472.335-.369.11-.561.101a1.1 1.1.0 01-.548-.012 1.14 1.14.0 01-.481-.276 1.2 1.2.0 01-.306-.479 1.3 1.3.0 01-.063-.574m1.882-.067v-2.389c0-.397-.188-.548-.484-.529-.295.019-.475.198-.475.604v2.381c0 .406.18.557.475.538.296-.019.484-.198.484-.605"/><path fill="#20DF7F" stroke="#263238" stroke-linecap="round" stroke-linejoin="round" d="m366.745 138.667-4.552.245a2.76 2.76.0 01-1.179-.111 2.9 2.9.0 01-1.04-.597 3.05 3.05.0 01-.728-.984 3.2 3.2.0 01-.297-1.208v-4.316a3.6 3.6.0 011.02-2.298 3.24 3.24.0 012.224-.97l4.552-.293a2.75 2.75.0 011.178.104c.382.121.735.323 1.039.594.304.272.551.607.726.984s.275.789.291 1.208v4.383a3.57 3.57.0 01-1.015 2.294 3.22 3.22.0 01-2.219.965"/><path fill="#263238" d="M375.266 135.172v-.708l1.38-.076v.793c0 .643.287.851.753.832s.753-.274.753-.945v-2.002c0-.633-.287-.86-.753-.832s-.753.284-.753.945v.076l-1.38.075.269-4.987 3.835-.246v1.285l-2.536.151c-.053.859-.071 1.285-.125 2.135.135-.222.321-.404.54-.531s.465-.195.714-.197c1.076-.066 1.613.633 1.613 1.946v2.022c.03.311-.006.625-.103.92a2.2 2.2.0 01-.462.79 2 2 0 01-.733.512c-.277.112-.574.16-.87.139-.28.061-.57.051-.846-.03a1.8 1.8.0 01-.739-.435 1.9 1.9.0 01-.466-.745 2 2 0 01-.091-.887M380.562 134.87v-.699l1.371-.085v.812c0 .633.296.85.762.822s.752-.265.752-.945v-2.012c0-.642-.295-.869-.752-.84-.457.028-.762.283-.762.944v.076l-1.371.085c.108-2.012.162-3.013.26-5.016l3.835-.246v1.285l-2.536.151c-.044.86-.071 1.294-.116 2.154.135-.222.32-.405.539-.532s.465-.194.715-.195c1.067-.067 1.613.632 1.613 1.955v2.031a2.3 2.3.0 01-.104.923 2.2 2.2.0 01-.46.793 2.1 2.1.0 01-.733.517 1.96 1.96.0 01-.871.147 1.7 1.7.0 01-.854-.03 1.8 1.8.0 01-.743-.443 1.9 1.9.0 01-.465-.756 2 2 0 01-.08-.896M385.812 131.337v-2.248a1.448 1.448.0 01.371-1.105 1.3 1.3.0 01.474-.331 1.26 1.26.0 01.562-.094c.181-.041.369-.035.548.016s.344.148.481.28c.136.132.241.297.305.48.065.183.086.38.064.574v2.258a1.46 1.46.0 01-.369 1.098 1.3 1.3.0 01-.471.33 1.3 1.3.0 01-.558.093 1.145 1.145.0 01-1.031-.297 1.24 1.24.0 01-.308-.479 1.3 1.3.0 01-.068-.575m1.882-.047v-2.381c0-.406-.188-.557-.475-.538s-.484.198-.484.595v2.38c0 .397.179.558.484.539s.475-.199.475-.595m2.876-3.778.896-.057c-1.434 3.703-2.15 5.554-3.584 9.238l-.896.047c1.434-3.712 2.15-5.564 3.584-9.266zm-.699 7.754v-2.257a1.46 1.46.0 01.369-1.098 1.3 1.3.0 01.471-.33c.177-.073.368-.105.558-.093.183-.04.372-.034.552.018s.345.148.483.281c.137.133.243.299.308.483.064.185.086.383.064.578v2.267c.017.201-.007.404-.071.594s-.167.364-.301.508a1.3 1.3.0 01-.474.329c-.178.072-.37.103-.561.09a1.1 1.1.0 01-.562-.022 1.16 1.16.0 01-.488-.295 1.24 1.24.0 01-.301-.5 1.3 1.3.0 01-.047-.59zm1.882.0v-2.389c0-.397-.188-.558-.484-.539s-.475.199-.475.595v2.39c0 .397.179.557.475.538.296-.018.484-.273.484-.67z"/><path fill="#20DF7F" d="m146.986 187.586-56.074 1.37V91.901l56.074-6.81z"/><path fill="#fff" d="m146.986 187.586-56.074 1.37V91.901l56.074-6.81z" opacity=".8"/><path fill="#20DF7F" d="m203.104 186.226-56.119 1.36V85.091l56.083-6.81z"/><path fill="#fff" d="m203.104 186.226-56.119 1.36V85.091l56.083-6.81z" opacity=".6"/><path fill="#20DF7F" d="m259.186 184.866-56.082 1.36V78.281l56.082-6.81z"/><path fill="#fff" d="m259.186 184.866-56.082 1.36V78.281l56.082-6.81z" opacity=".4"/><path stroke="#7F7F7F" stroke-linecap="round" stroke-linejoin="round" d="M259.186 71.47 90.948 91.901m0 13.867L259.186 87.67m0 16.199L90.948 119.634m0 13.885 168.238-13.422m0 16.171L90.948 147.357m0 13.866 168.238-8.756m0 16.199L90.948 175.08m0 13.876 168.238-4.09M104.962 188.616V90.201m-14.014 1.7v97.055M133.008 187.926V86.791m-14.024 1.7v99.813M161.044 187.246V83.391M146.985 85.09v102.496M189.099 186.566V79.981M175.067 81.69v105.216M217.127 185.886V76.58m-14.023 1.7v107.946M245.163 185.206V73.18M231.141 74.88v110.666M259.187 71.47v113.396"/><path stroke="#263238" stroke-linecap="round" stroke-linejoin="round" d="M90.948 91.901v97.055l168.238-4.09V71.517zm0 83.179h1.004"/><path stroke="#263238" stroke-dasharray="1.71 1.71" stroke-linecap="round" stroke-linejoin="round" d="m93.663 174.985 9.444-.359"/><path stroke="#263238" stroke-linecap="round" stroke-linejoin="round" d="M103.977 174.589h.994l.708-.737"/><path stroke="#263238" stroke-dasharray="1.98 1.98" stroke-linecap="round" stroke-linejoin="round" d="M107.076 172.35c4.203-4.392 6.272-6.612 10.502-11.079"/><path stroke="#263238" stroke-linecap="round" stroke-linejoin="round" d="m118.312 160.524.708-.755c.287.264.43.406.708.68"/><path stroke="#263238" stroke-dasharray="1.58 1.58" stroke-linecap="round" stroke-linejoin="round" d="m120.812 161.525 3.916 3.779"/><path stroke="#263238" stroke-linecap="round" stroke-linejoin="round" d="m125.283 165.88.708.699c.134-.397.197-.595.323-.992"/><path stroke="#263238" stroke-dasharray="1.83 1.83" stroke-linecap="round" stroke-linejoin="round" d="M126.888 163.745a4754 4754 0 005.51-17.286"/><path stroke="#263238" stroke-linecap="round" stroke-linejoin="round" d="M132.649 145.59c.135-.406.198-.604.323-1.001l.995-.066"/><path stroke="#263238" stroke-dasharray="1.67 1.67" stroke-linecap="round" stroke-linejoin="round" d="m135.678 144.41 2.5-.161"/><path stroke="#263238" stroke-linecap="round" stroke-linejoin="round" d="m139.011 144.193 1.003-.067.448-.944"/><path stroke="#263238" stroke-dasharray="1.95 1.95" stroke-linecap="round" stroke-linejoin="round" d="m141.34 141.293 4.803-10.391"/><path stroke="#263238" stroke-linecap="round" stroke-linejoin="round" d="m146.573 129.986.448-.944 1.004-.085"/><path stroke="#263238" stroke-dasharray="1.71 1.71" stroke-linecap="round" stroke-linejoin="round" d="m149.745 128.796 9.435-.756"/><path stroke="#263238" stroke-linecap="round" stroke-linejoin="round" d="m160.041 127.984 1.004-.085.707-.803"/><path stroke="#263238" stroke-dasharray="1.58 1.58" stroke-linecap="round" stroke-linejoin="round" d="m162.872 125.821 3.916-4.487"/><path stroke="#263238" stroke-linecap="round" stroke-linejoin="round" d="m167.344 120.692.708-.822 1.003-.085"/><path stroke="#263238" stroke-dasharray="1.99 1.99" stroke-linecap="round" stroke-linejoin="round" d="m171.053 119.615 11.021-.945c2.24-2.616 3.36-3.92 5.6-6.555"/><path stroke="#263238" stroke-linecap="round" stroke-linejoin="round" d="M188.373 111.274c.287-.34.43-.5.708-.84l.708.708"/><path stroke="#263238" stroke-dasharray="1.98 1.98" stroke-linecap="round" stroke-linejoin="round" d="M191.195 112.531c4.194 4.193 6.273 6.309 10.502 10.579"/><path stroke="#263238" stroke-linecap="round" stroke-linejoin="round" d="m202.396 123.828.707.718c.287-.331.422-.501.708-.841"/><path stroke="#263238" stroke-dasharray="1.58 1.58" stroke-linecap="round" stroke-linejoin="round" d="M204.932 122.382c1.568-1.889 2.347-2.777 3.915-4.647"/><path stroke="#263238" stroke-linecap="round" stroke-linejoin="round" d="m209.402 117.074.708-.85 1.004-.085"/><path stroke="#263238" stroke-dasharray="1.93 1.93" stroke-linecap="round" stroke-linejoin="round" d="m213.04 115.969 11.093-.945c2.804-3.391 4.202-5.091 7.007-8.501l5.044-.472"/><path stroke="#263238" stroke-linecap="round" stroke-linejoin="round" d="m237.152 105.938 1.004-.095.448-1.058"/><path stroke="#263238" stroke-dasharray="1.95 1.95" stroke-linecap="round" stroke-linejoin="round" d="M239.474 102.717c1.917-4.553 2.885-6.839 4.802-11.42"/><path stroke="#263238" stroke-linecap="round" stroke-linejoin="round" d="m244.715 90.248.448-1.067M90.948 161.223l14.014-.727c5.609-3.108 8.414-4.676 14.023-7.859l7.007-.416c2.804-5.903 4.211-8.878 7.016-14.858 2.804-3.098 4.202-4.647 7.007-7.783 2.804-6.045 4.202-9.087 7.007-15.207 5.609 2.408 8.413 3.627 14.023 6.111 2.804 2.72 4.202 4.09 7.006 6.858 5.61-6.424 8.414-9.673 14.023-16.247 2.805-6.319 4.203-9.446 7.007-15.888 5.609 5.488 8.414 8.275 14.023 13.914a2816 2816 0 017.007 14.867l14.023-1.124a750 750 0 007.007-8.501 7126 7126 0 007.016-24.464c2.795-6.669 4.202-10.022 7.007-16.757"/><path fill="#263238" d="M117.829 200.442a2.5 2.5.0 01-.896.151 1.7 1.7.0 01-.805-.089 1.8 1.8.0 01-.686-.453 1.9 1.9.0 01-.427-.725 2 2 0 01-.08-.849v-4.506a2.1 2.1.0 01.086-.854c.089-.274.233-.525.424-.734s.424-.37.681-.472c.257-.103.533-.144.807-.122.271-.036.546-.007.805.085s.494.247.688.45.34.451.43.723a2 2 0 01.084.849v4.496c.017.498-.112.989-.368 1.407.09.17.251.199.493.189h.197v1.219h-.34a.97.97.0 01-.68-.171c-.2-.14-.347-.351-.413-.594m-.188-1.89v-4.656c0-.614-.269-.841-.69-.831-.421.009-.681.245-.681.859v4.647c0 .614.268.841.681.832.412-.01.69-.265.69-.879zM121.699 193.877h-1.38v-.945c1.12.0 1.515-.274 1.792-1.114h.896v8.576h-1.326zM173.534 199.743a2.5 2.5.0 01-.896.17 1.8 1.8.0 01-.821-.124 1.9 1.9.0 01-.69-.488 2 2 0 01-.419-.755 2.1 2.1.0 01-.068-.872v-4.723a2.1 2.1.0 01.07-.88 2.05 2.05.0 01.417-.766c.19-.22.425-.393.686-.507s.543-.165.825-.152c1.3.0 2.007.784 2.007 2.23v4.722a2.66 2.66.0 01-.367 1.483c.09.18.251.208.493.199h.206v1.303h-.349a.98.98.0 01-.7-.199 1.08 1.08.0 01-.394-.641m-.188-2.012v-4.912c0-.642-.269-.888-.69-.879s-.681.265-.681.945v4.865c0 .642.269.878.681.878s.69-.255.69-.878zM175.533 198.77a4.4 4.4.0 01.331-1.759 4.2 4.2.0 01.995-1.453c1.004-1.152 1.29-1.889 1.29-2.692s-.259-1.029-.681-1.02c-.421.009-.69.264-.69.945v.944h-1.245v-.878c0-1.445.672-2.286 1.971-2.305s1.971.784 1.971 2.229c0 1.077-.412 2.04-1.639 3.457-.789.945-.995 1.37-.995 1.993v.199h2.509v1.294l-3.817.047zM229.653 199.044c-.285.119-.589.18-.896.179-1.299.0-2.007-.84-2.007-2.352v-4.968c0-1.512.708-2.39 2.007-2.418s2.007.831 2.007 2.342v4.978a2.96 2.96.0 01-.376 1.559c.098.189.251.217.493.207h.206v1.351h-.35a.98.98.0 01-.704-.217 1.08 1.08.0 01-.38-.661m-.197-2.116v-5.167c0-.68-.26-.944-.681-.944s-.681.273-.681.944v5.167c0 .671.26.944.681.944s.645-.273.645-.944zM231.579 196.805v-.775h1.246v.841c0 .671.259.945.681.945.421.0.689-.246.689-1.087v-.774c0-.879-.268-1.2-.896-1.19h-.439v-1.361h.475c.493.0.798-.255.798-1.02v-.689c0-.68-.278-.945-.663-.945-.386.0-.636.274-.636.898v.623h-1.246v-.501c0-1.52.672-2.38 1.927-2.399s1.935.784 1.935 2.305v.406c0 1.02-.287 1.653-.896 1.936.708.284.968.945.968 1.937v.85c0 1.521-.672 2.361-1.972 2.371s-1.971-.831-1.971-2.371"/><path fill="#263238" stroke="#263238" stroke-linecap="round" stroke-linejoin="round" d="M141.717 125.355s-13.342-12.081-4.48-20.063c0 0 4.274-14.169 18.315-12.175 14.04 1.992 7.007-6.386 7.007-6.386s7.956 4.392 4.3 7.783a5.66 5.66.0 003.151-.779 6.07 6.07.0 002.288-2.413s2.447 4.59-2.123 6.612c0 0 5.976 1.596 4.381 5.195.0.0-4.247-2.38-5.376 6.612s-14.641 7.679-14.641 7.679zM142.569 128.349c0-.463-3.172 9.729 2.858 8.869 2.859-.406-1.209-8.869-1.209-8.869z"/><path stroke="#7F7F7F" stroke-linecap="round" stroke-linejoin="round" d="M171.985 100.805s-3.584-.604-4.292 3.779M163.5 99.757c-1.416 1.946-.941 4.836-.941 4.836M170.973 94.514c-1.312 1.89-3.217 3.23-5.376 3.779M154.513 99.559s5.752-1.2 4.991 5.034"/><path fill="#999" d="M182.719 250.255s4.776 26.278.0 52.027-7.723 108.436-7.723 108.436h-29.722V246.146l35.949-1.332z"/><path fill="#000" d="M165.059 285.516s-1.29 9.086 5.152 6.791 10.914-1.502 5.538 3.637c-5.376 5.138-12.831 12.921-14.023 41.069s-3.038 73.677-3.038 73.677h-12.947l-2.688-104.545 11.765-18.258 5.474-2.4z" opacity=".2"/><path stroke="#263238" stroke-linecap="round" stroke-linejoin="round" d="M182.719 250.255s4.776 26.278.0 52.027-7.723 108.436-7.723 108.436h-29.722V246.146l35.949-1.332z"/><path stroke="#263238" stroke-linecap="round" stroke-linejoin="round" d="M179.135 292.401s-6.657-1.492-14.076 7.189"/><path fill="#999" stroke="#263238" stroke-linecap="round" stroke-linejoin="round" d="M169.288 253.211s-.304 29.282-3.888 40.39-8.961 63.229-8.36 117.126h-30.725s-1.792-97.356-3.002-111.733c-1.21-14.376-7.464-11.967 1.192-52.839h46.047z"/><path fill="#263238" d="M163.464 259.483c2.365-.17 4.525-.368 6.487-.576l.26 4.827c-2.043.217-4.301.425-6.747.595zM173.293 258.51c3.71-.463 6.398-.944 7.849-1.218l.618 4.77c-1.684.321-4.569.822-8.467 1.313zM122.865 263.271l.699-4.723c5.036.595 9.856.992 14.453 1.218l-.305 4.789c-4.686-.264-9.65-.661-14.847-1.284M141.512 259.927c7.006.236 13.332.104 18.816-.208v4.837c-3.476.188-7.294.311-11.397.311-2.42.0-4.946-.047-7.563-.141z"/><path fill="#fff" stroke="#263238" stroke-linecap="round" stroke-linejoin="round" d="m226.902 208.297 7.563-4.808s3.181-8.784 7.168-11.174 7.957-4.591 8.96-3.996-.197 2.598-2.786 4.591c-1.613 1.247 3.082-.869 9.103-3.778 3.584-1.757 7.724-4.204 8.36-3.146 2.339 3.845-9.623 8.738-9.623 8.738s4.104-.208 2.509 2.984c0 0 .6 2.995-.798 3.996l-1.586 2.04c-.652 2.015-1.91 3.749-3.584 4.94a26.34 26.34.0 01-11.747 3.599l-9.946 7.339z"/><path stroke="#263238" stroke-linecap="round" stroke-linejoin="round" d="M253.174 195.111s-8.458 1.795-8.01 3.778 3.073.586 3.073.586-2.796 1.001-2.491 2.097c.305 1.095 2.285 1.076 2.285 1.076s-2.59.624-2.285 1.89c.305 1.265 2.025 1.7 3.45 1.501 1.424-.198 2.518-.708 2.921.048.403.755-3.889-.454-6.371 1.398"/><path stroke="#263238" stroke-linecap="round" stroke-linejoin="round" d="M246.446 193.609a5.8 5.8.0 01-1.264 2.994c-1.03 1.002-.134 4.393-3.915 8.086M255.038 198.549l-4.704.595M254.662 202.29l-4.328.378"/><path fill="#20DF7F" stroke="#263238" stroke-linecap="round" stroke-linejoin="round" d="M208.991 213.369c6.568-1.889 14.507-7.056 18.324-9.729a1.518 1.518.0 011.52-.161c.246.11.461.284.626.506.165.221.274.483.318.76.43 3.656 1.792 9.881 6.38 11.571 6.567 2.437.295 6.197-3.88 7.463-4.176 1.265-34.049 16.529-43.01 14.442-8.96-2.088-11.944-3.599-16.128-12.723s-2.097-53.142-2.097-53.142l12.545-3.296s3.279 3.098 4.874 23.85 4.22 23.35 4.22 23.35 7.966-6.206 5.878-.208c-.018.0 8.172-2.04 10.43-2.683"/><path stroke="#263238" stroke-linecap="round" stroke-linejoin="round" d="M194.359 219.613s-3.235 11.392-5.672 10.523-1.792-3.977 2.24-10.523"/><path fill="#20DF7F" stroke="#263238" stroke-linecap="round" stroke-linejoin="round" d="M183.616 169.06c-5.815-5.828-14.336-11.675-31.943-12.875s-42.114 3.297-43.01 10.485 9.256 45.717 9.256 80.232c0 5.091.601 10.777 10.753 10.777s56.727 3.589 57.346-8.085-2.384-23.35-1.488-40.116 3.566-35.922-.914-40.418"/><path fill="#20DF7F" d="M113.609 161.692s-7.312 2.295-8.906 13.876-8.558 37.716-5.968 38.321-6.174 5.186-2.993 11.977S113.26 254.6 121.62 252.21s7.956-15.973 5.376-18.362c-2.581-2.39-11.371-7.406-11.371-7.406s2.581-1.596-.6-4.59c-3.181-2.995 2.303 1.511 3.978-8.586 1.989-11.968 8.96-29.14 4.776-39.512"/><path stroke="#263238" stroke-linecap="round" stroke-linejoin="round" d="M113.609 161.692s-7.312 2.295-8.906 13.876-8.558 37.716-5.968 38.321-6.174 5.186-2.993 11.977S113.26 254.6 121.62 252.21s7.956-15.973 5.376-18.362c-2.581-2.39-11.371-7.406-11.371-7.406s2.581-1.596-.6-4.59c-3.181-2.995 2.303 1.511 3.978-8.586 1.989-11.968 8.96-29.14 4.776-39.512"/><path stroke="#263238" stroke-linecap="round" stroke-linejoin="round" d="M114.057 215.665s-11.344-2.834-14.337 1.993c-2.992 4.827 4.714-.992 12.106 1.001"/><path fill="#fff" stroke="#263238" stroke-linecap="round" stroke-linejoin="round" d="M130.472 238.419c-1.792-1.35-6.066-3.693-8.852-.944s-9.454 4.383-9.059 6.479c.394 2.097 2.885 2.702 7.365.407s.78.595 1.586 5.185c.806 4.591 1.461 8.766 4.964 7.982.0.0.314 1.993 3.503 1.096.0.0 2.384 2.059 6.165.236.0.0 2.097 2.257 5.179-1.634s1.183-4.855 1.183-4.855-1.389-4.506-4.48.0c0 0 .537-5.573-2.581-9.068a49 49 0 00-4.973-4.884"/><path stroke="#263238" stroke-linecap="round" stroke-linejoin="round" d="M127.82 256.149s5.045-3.391 3.951-5.384-5.179 2.191-5.179 2.191.601-1.076-.591-2.729M131.467 257.273s7.625-2.503 5.878-4.902c-1.55-2.116-4.83.311-4.83.311M141.61 253.211s-.806 2.399-4.381 4.723M128.958 246.146a11.37 11.37.0 004.355 4.109m-19.256-24.757s-6.416-3.297-11.344-.756"/><path fill="#20DF7F" d="m162.568 162.325-5.126-1.946-5.77 1.946s3.88 6.14 5.448 6.432c0 0 5.618 45.982 7.392 67.452s1.192 23.454 1.192 23.454l7.759 6.697 5.672-8.445s-2.984-33.768-6.863-53.84a173.7 173.7.0 00-11.048-35.62s2.284-3.089 1.344-6.13"/><path fill="#000" d="m162.568 162.325-5.126-1.946-5.77 1.946s3.88 6.14 5.448 6.432c0 0 5.618 45.982 7.392 67.452s1.192 23.454 1.192 23.454l7.759 6.697 5.672-8.445s-2.984-33.768-6.863-53.84a173.7 173.7.0 00-11.048-35.62s2.284-3.089 1.344-6.13" opacity=".3"/><path stroke="#263238" stroke-linecap="round" stroke-linejoin="round" d="m162.568 162.325-5.126-1.946-5.77 1.946s3.88 6.14 5.448 6.432c0 0 5.618 45.982 7.392 67.452s1.192 23.454 1.192 23.454l7.759 6.697 5.672-8.445s-2.984-33.768-6.863-53.84a173.7 173.7.0 00-11.048-35.62s2.284-3.089 1.344-6.13"/><path fill="#fff" d="M163.177 146.579s-1.012 6.905 1.505 11.637c0 0-5.447 2.513-7.786 2.834s-14.336-7.217-14.336-7.217a96.3 96.3.0 001.666-24.143c-.77-13.318 13.557 8.322 13.557 8.322l6.891 6.612z"/><path fill="#263238" stroke="#263238" stroke-linecap="round" stroke-linejoin="round" d="M165.4 147.212s.143 4.487-5.896 4.335c-6.04-.151-12.043-9.615-13.055-11.977s-2.214-13.469-2.214-13.469l15.233 4.515 7.392 15.963z"/><path stroke="#263238" stroke-linecap="round" stroke-linejoin="round" d="M163.177 146.579s-1.012 6.905 1.505 11.637c0 0-5.447 2.513-7.786 2.834s-14.336-7.217-14.336-7.217a96.3 96.3.0 001.666-24.143c-.77-13.318 13.557 8.322 13.557 8.322l6.891 6.612z"/><path fill="#20DF7F" stroke="#263238" stroke-linecap="round" stroke-linejoin="round" d="M163.813 154.787s-2.983 5.394-6.37 5.592-14.731-11.335-17.114-9.578c-1.486 1.183-2.57 2.839-3.092 4.723l10.143 12.667s7.428-6.688 10.412-6.489 9.4 6.489 9.4 6.489v-9.172s-1.972-6.319-3.379-4.232"/><path fill="#fff" d="M168.142 106.359s4.175 12.913 3.351 16.2c0 0 3.889 24.473-5.376 26.448-7.312 1.53-14.543-5.876-17.303-9.125a9.1 9.1.0 01-1.693-3.051l-1.792-5.535s-3.647.283-5.869-4.874 2.303-10.164 5.806-2.352c0 0 2.742-7.897 2.536-11.07s3.745-2.4 4.561-5.536c0-.018 9.372 1.578 15.779-1.105"/><path stroke="#263238" stroke-linecap="round" stroke-linejoin="round" d="M168.142 106.359s4.175 12.913 3.351 16.2c0 0 3.889 24.473-5.376 26.448-7.312 1.53-14.543-5.876-17.303-9.125a9.1 9.1.0 01-1.693-3.051l-1.792-5.535s-3.647.283-5.869-4.874 2.303-10.164 5.806-2.352c0 0 2.742-7.897 2.536-11.07s3.745-2.4 4.561-5.536c0-.018 9.372 1.578 15.779-1.105"/><path fill="#fff" d="m167.693 124.788 4.946 6.565c.116.156.194.34.228.536.034.195.023.397-.032.586a1.26 1.26.0 01-.286.505 1.16 1.16.0 01-.474.309l-3.512 1.303"/><path stroke="#263238" stroke-linecap="round" stroke-linejoin="round" d="m167.693 124.788 4.946 6.565c.116.156.194.34.228.536.034.195.023.397-.032.586a1.26 1.26.0 01-.286.505 1.16 1.16.0 01-.474.309l-3.512 1.303M160.498 137.218s1.532 3.325 6.658.388M166.851 124.523c.152 3.268-1.371 5.989-3.396 6.083s-3.79-2.474-3.943-5.733c-.152-3.259 1.371-4.204 3.396-4.298s3.791.68 3.943 3.948"/><path fill="#fff" stroke="#263238" stroke-linecap="round" stroke-linejoin="round" d="M176.178 123.786c.153 3.269-1.066 5.98-2.688 6.055-1.622.076-3.118-2.503-3.27-5.771s1.084-4.185 2.742-4.27 3.064.718 3.216 3.986"/><path stroke="#263238" stroke-linecap="round" stroke-linejoin="round" d="M159.53 119.772s2.205-3.4 6.111-.803M170.283 118.96a4.52 4.52.0 012.688-1.587M159.53 124.854c-1.293.381-2.62.622-3.96.718-3.038-.312-11.317-4.553-11.317-4.553m25.923 2.512-3.172.577"/><path fill="#263238" d="M165.068 124.92c-.09 1.011-.663 1.776-1.291 1.719s-1.048-.944-.967-1.889c.08-.945.672-1.776 1.29-1.719s1.057.878.968 1.889M172.791 123.815c-.089.945-.519 1.747-.967 1.7s-.735-.859-.646-1.842c.09-.982.511-1.738.959-1.7s.735.869.654 1.842"/><path stroke="#263238" stroke-linecap="round" stroke-linejoin="round" d="M137.39 237.588c1.568-4.269 12.096-3.561 12.096-3.561m13.019 5.715c-11.155 2.833-23.297 4.864-24.901.869m44.157-6.584s-1.165.397-3.11 1.03"/><path fill="#D6D6D6" stroke="#263238" stroke-linecap="round" stroke-linejoin="round" d="M410.956 410.718H17.402v-55.239s76.261-31.17 174.726-31.17c120.041.047 218.828 86.409 218.828 86.409"/><path fill="#000" d="m248.801 339.762-46.459-6.603-47.256 8.417 46.459 6.612z" opacity=".2"/><path fill="#fff" stroke="#263238" stroke-linecap="round" stroke-linejoin="round" d="m243.112 339.299-43.17-6.14-43.915 7.821 43.171 6.14z"/><path fill="#20DF7F" stroke="#263238" stroke-linecap="round" stroke-linejoin="round" d="m248.802 337.457-43.171-6.14-43.914 7.821 43.17 6.14z"/><path fill="#000" d="M160.104 371.452c8.19.0 14.829-1.429 14.829-3.193.0-1.763-6.639-3.192-14.829-3.192s-14.83 1.429-14.83 3.192 6.64 3.193 14.83 3.193" opacity=".2"/><path fill="#fff" stroke="#263238" stroke-linecap="round" stroke-linejoin="round" d="M168.679 367.391c0 .887-4.785 1.605-10.698 1.605s-10.69-.718-10.69-1.605v-21.159c0-.888 4.785-1.606 10.69-1.606s10.698.718 10.698 1.606z"/><path fill="#fff" stroke="#263238" stroke-linecap="round" stroke-linejoin="round" d="M168.679 346.232c0 .888-4.785 1.606-10.698 1.606s-10.69-.718-10.69-1.606 4.785-1.606 10.69-1.606 10.698.718 10.698 1.606M167.389 365.388a1.14 1.14.0 01-.776-.287 1.25 1.25.0 01-.407-.752 1.27 1.27.0 01.238-.908 1.115 1.115.0 01.783-.452c.269.0 6.757-1.058 6.757-7.217.0-1.549-.395-2.597-1.165-3.126-1.443-.945-4.14-.208-4.973.141a1.17 1.17.0 01-.909-.001 1.25 1.25.0 01-.659-.66 1.25 1.25.0 01.011-.93c.061-.146.149-.278.26-.388q.167-.165.383-.25c.457-.189 4.48-1.757 7.222.095 1.478 1.001 2.231 2.72 2.231 5.119.0 6.612-5.771 9.172-8.826 9.607z"/><path fill="#263238" stroke="#263238" stroke-linecap="round" stroke-linejoin="round" d="M182.755 351.616c-.708.718-1.192 1.398-1.066 1.531.125.132.806-.359 1.523-1.077s1.192-1.398 1.066-1.521-.806.359-1.523 1.067"/><path fill="#20DF7F" stroke="#263238" stroke-linecap="round" stroke-linejoin="round" d="M186.608 345.127c-2.93 2.938-4.614 6.008-3.763 6.858s3.924-.831 6.854-3.778l18.88-18.939c2.93-2.938 4.614-6.017 3.763-6.867s-3.916.831-6.846 3.778z"/><path fill="#263238" stroke="#263238" stroke-linecap="round" stroke-linejoin="round" d="m205.81 332.054-.779.784a21 21 0 01-1.604-1.483 34 34 0 01-1.479-1.605l.78-.784a27 27 0 003.082 3.088"/><path stroke="#263238" stroke-linecap="round" stroke-linejoin="round" d="M210.021 322.713s-1.308-.851-4.301 1.473-5.779 6.338-7.168 6.206"/><path fill="#fff" stroke="#263238" stroke-linecap="round" stroke-linejoin="round" d="M173.66 361.818s2.177-5.545 2.177-8.379 5.663-12.383 9.857-14.064 18.315-8.7 19.345-5.857c1.03 2.844-5.322 6.367-6.657 7.028a29.3 29.3.0 00-4.176 3.353s6.46-1.36 7.168-3.514 2.688-5.025 3.764-3.183.582 6.527-1.094 10.126v2.428s1.837 2.833-.161 5.185l-1.541 1.672s2.688 2.834-.968 5.195c0 0 1.676 2.513-1.335 5.016.0.0-6.344 3.183-10.349 4.184s-7.509 7.037-7.509 7.037zM50.967 265.802l10.465-24.624-6.738-20.63-.672-23.661 18.44-10.901 16.281-2.89 6.64 4.052 2.76 6.744s8.279 17.645 6.998 21.036c-1.282 3.391-2.231 6.612-2.231 6.612s3.906 9.162 6.218 12.072-4.857 1.142-5.699 6.385c-.842 5.242.162 19.156-5.985 19.789-6.147.632-9.856-1.38-10.421 4.09S80.15 283.23 80.15 283.23z"/><path fill="#263238" stroke="#263238" stroke-linecap="round" stroke-linejoin="round" d="M102.31 167.36c-.896-3.174-9.525 1.237-10.421 8.038.0.0-1.102-10.39-3.951-11.382-2.491-.86-5.932 3.854-4.687 9.445.0.0-9.31-5.157-12.311-3.957-2.222.888-3.002 5.459 1.792 9.445.0.0-29.103-6.819-27.4 19.902.0.0-16.004 12.573 13.601 48.287.0.0 7.025-1.644 8.96-2.834 1.12-.689 10.484-8.501 10.484-8.501-2.688-1.011-7.365-3.901-8.638-7.387-1.613-4.411.547-9.681 4.48-10.39 2.357-.425 3.692.68 5.377 2.664.0.0-3.88-5.167-3.638-7.169.304-2.504 6.164-5.158 6.594-7.642.197-1.171-2.41-3.476-1.72-4.449 3.513-4.94 20.295.784 18.575-15.595s4.157-14.027 2.903-18.475"/><path fill="#263238" d="M101.691 220.255c0 1.294-.242 2.352-.636 2.362-.394.009-.726-1.03-.762-2.324s.242-2.352.627-2.361c.386-.01.735 1.048.771 2.323"/><path stroke="#263238" stroke-linecap="round" stroke-linejoin="round" d="M98.752 215.608s1.021-3.316 3.073-3.533"/><path stroke="#7F7F7F" stroke-linecap="round" stroke-linejoin="round" d="M76.764 190.095c10.053.841 1.738-14.716 1.738-14.716M51.263 197.378s7.912-12.128 22.481-7.887M90.536 183.143c.985 5.384.0 12.582-11.738 13.451m9.73-19.43q.61 1.227 1.058 2.531"/><path fill="#263238" stroke="#263238" stroke-linecap="round" stroke-linejoin="round" d="M99.389 410.718s9.067-98.443-1.685-117.022-42.893-40.381-54.389-30.935C3.425 295.689 3.29 323.808.754 410.699z"/><path fill="#263238" stroke="#263238" stroke-linecap="round" stroke-linejoin="round" d="M90.634 290.153s12.679 3.514 19.713 23.615c6.478 18.447 18.252 42.77 26.11 54.888a5.8 5.8.0 002.475 2.093c.996.438 2.088.57 3.152.382 3.459-.576 10.053-1.02 16.37-4.638 5.852-3.353 11.022-7.027 17.527-6.026s10.582 7.377 9.534 16.587c-1.004 8.784-38.467 31.633-60.59 31.633-18.046.0-34.542-52.216-40.052-67.782-5.51-15.567-11.263-49.722 5.761-50.752"/><path stroke="#7F7F7F" stroke-linecap="round" stroke-linejoin="round" d="M83.959 292.25a9.86 9.86.0 015.68-2.097M79.542 299.599a18.6 18.6.0 011.407-3.589m17.123 77.832a307 307 0 01-14.193-32.946c-3.432-9.701-6.962-26.609-5.018-38.218"/><path fill="#263238" stroke="#263238" stroke-linecap="round" stroke-linejoin="round" d="M90.214 286.668s5.009-7.698.0-14.065-27.867-20.119-36.415-16.728a5 5 0 00-1.75 1.053 5.3 5.3.0 00-1.216 1.693 5.563 5.563.0 00-.17 4.159s17.186.793 39.55 23.888"/><path stroke="#7F7F7F" stroke-linecap="round" stroke-linejoin="round" d="M87.436 284.486a116 116 0 012.141 2.163M56.531 264.197c5.94 1.889 15.546 6.338 26.97 16.605M50.054 262.761q1.512.12 2.992.472m88.402 120.839s0-5.517-2.751-7.028-.502 7.028-3.253 14.065m-23.036-67.282s2.258.246 4.256 23.34"/><path fill="#263238" stroke="#263238" stroke-linecap="round" stroke-linejoin="round" d="m78.332 235.746 1.918.378a20.9 20.9.0 001.873 8.199c1.791 3.514 4.336 4.184 10.313 11.023 5.573 6.367 8.136 2.22 8.458 1.625a4.7 4.7.0 01-1.394 1.901 4.35 4.35.0 01-2.1.932c-6.138.633-9.857-1.379-10.421 4.09-.986-4.231-4.193-9.322-6.73-15.689a29 29 0 01-1.917-12.459"/><path fill="#263238" d="M80.949 231.77c.707-4.355-3.584-13.224-1.335-11.165s5.179 9.653 8.682 12.544 3.172 9.663 8.18 6.819a9.2 9.2.0 017.169-.944 4.6 4.6.0 00-.242.944c-.833 5.271.161 19.156-5.985 19.789a48 48 0 01-5.323.123c-3.476-3.835-8.44-9.531-10.34-12.837-3.073-5.299-1.505-10.919-.806-15.273" opacity=".3"/><path stroke="#263238" stroke-linecap="round" stroke-linejoin="round" d="M102.265 244.361s-3.145-1.446-3.082-3.524"/></svg>