<svg xmlns="http://www.w3.org/2000/svg" width="462" height="405" fill="none"><path fill="#C5C5C5" d="M410.68 405.01c28.051.0 50.79-13.166 50.79-29.406s-22.739-29.405-50.79-29.405-50.789 13.166-50.789 29.405 22.739 29.406 50.789 29.406"/><path fill="#263238" d="M443.839 363.593a8.24 8.24.0 01.868 4.286c-.066 1.296-.84 2.98-.491 5.904s1.019 3.85 1.331 5.913a7.28 7.28.0 01-1.142 5.497c-1.208 1.968-3.868 3.529-9.133 3.34-4.246-.152-5.963-2.337-6.058-4.844z"/><path fill="#37474F" d="M442.631 357.557q.197.817.255 1.656c.16.993.453 1.892.689 2.904.066.256.122.511.179.767.406 1.958.0 3.983.0 5.979a33.2 33.2.0 001.236 6.963c.943 4.144 1.104 6.916-2.51 9.783-1.887 1.514-3.991 1.561-6.406 1.627a10.2 10.2.0 01-5.322-1.286c-1.547-1.145-1.528-2.11-1.538-2.479-.141-4.4 1.444-9.518 1.765-13.908.119-1.182.144-2.371.075-3.557-.151-1.457-.651-2.905-.811-4.371a2.55 2.55.0 01.198-1.618 2.57 2.57.0 011.953-.88 96 96 0 015.784-.587c.455-.086.925.009 1.311.265.378.341.387.946.491 1.41s.462 1.06.943.946a.85.85.0 00.585-.738c.047-.322.189-2.838.18-3.207.037.019.717-.085.943.331"/><path fill="#263238" d="M378.736 372.155a3.26 3.26.0 000 2.423c.311.719 3.906 2.951 8.879 2.838a20.7 20.7.0 0010.378-3.179c1.934-1.183 3.916-1.334 6.378-1.381 2.463-.048 5.35-.947 6.19-2.053a5.94 5.94.0 000-3.321z"/><path fill="#37474F" d="M396.738 357.425q-.285.534-.509 1.097a8.8 8.8.0 01-2.736 3.416 28.3 28.3.0 01-5.492 2.97c-1.226.549-2.509.7-3.774 1.136a21 21 0 00-4.029 1.778c-2 1.23-2.377 4.532-.217 5.932 1.888 1.202 6.86 2.631 12.2 1.344 2.916-.7 6.227-3.662 10.02-3.785 2.406-.085 6.982-.577 8.605-2.346.595-2.64-.056-3.387-.594-5.677a18.2 18.2.0 01-.453-3.86c0-.681.453-2.639-.944-2.838l-.141 1.466s-.274.492-1.765.757c-.481.086-.858.719-1.113 1.297-.255.577-.415 1.021-.943 1.012a.94.94.0 01-.746-.587 7 7 0 01-.273-.946 3.8 3.8.0 00-2.255-2.242 11.4 11.4.0 00-2.642-.558c-.68-.104-1.246-.398-1.887.189a2 2 0 00-.312.445"/><path fill="#455A64" d="M435.451 244.895c.943 14.447 1.443 22.857 4.019 62.282a103.4 103.4.0 013.595 20.663c.51 8.723 1.746 35.006 1.746 35.006s-7.011 5.771-15.097 3.103c0 0-7.34-38.639-9.907-50.692-2.453-11.571-4.34-24.221-4.34-24.221l-1.821 16.141s.321 7.181.095 17.9c-.114 5.734-2.831 36.766-2.831 36.766s-9.841 4.484-16.483-1.277c0 0-.481-50.324-.585-55.508-.113-5.923.943-65.481.943-65.481z"/><path fill="#37474F" d="m415.43 291.046-5.029-26.425s-7.775-.681-12.068-5.033c0 0 .764 4.267 10.539 6.821l4.859 24.334-.085 16.434zm29.154 67.06a15.92 15.92.0 01-10.784 3.898s6.699-1.003 10.718-5.431zM411.221 358.181s-6.859 2.404-12.643.568c0 0 4.463 3.009 12.539.539z"/><path fill="#A5A5A5" d="M338.872 191.137a1.6 1.6.0 00-.283-.625 2.85 2.85.0 01.057-2.838q.251-.315.415-.681c.189-.521-.047-1.107.0-1.666.17-2.488 4.661-1.4 6.086-.946.415.142 2.83.767 3.774 1.098a12.9 12.9.0 01.396-4.059c.642-2.583 2.765-2.318 2.887-.738.117 1.43.383 2.845.793 4.22.264 1.012.943 2.015 1.33 3.51.557 1.892.415 2.952 2.302 4.73 2.831 2.678 17.361 12.555 17.361 12.555 3.623-2.337 17.644-10.984 22.899-13.841 5.086-2.773 7.681-.54 7.681-.54l-4.435 16.377s-17.483 9.045-23.786 11.808c-4.397 1.892-6.34.832-11.19-3.501-3.85-3.652-8.926-8.931-14.408-13.794-2.189-1.949-3.774-2.942-5.321-3.018-.585.0-1.17-.066-1.746-.123-1.302-.151-2.83-.473-3.462-1.769-.217-.436-.321-.946-.5-1.382-.274-.7-.708-1.324-.944-2.024a2.86 2.86.0 01-.189-1.486c0-.407.34-.813.283-1.267"/><path fill="#20DF7F" d="M405.494 190.058c-4.472.0-6.208.0-11.888 3.236-5.68 3.235-16.757 10.587-16.757 10.587s4.963 2.772 5.953 12.611l17.927-8.439z"/><path fill="#C8E6C9" d="M347.194 186.983c1.481.36 1.944 1.296 2.047 3.387.057 1.24.576 3.501 1.982 4.324a3.2 3.2.0 01-1.802-.634c-.68-.615-.859-.672-1.189-.274a2.3 2.3.0 01-.887.596c.243.243.401.559.45.9s-.013.689-.176.992c-.576 1.116-3.472 1.334-5.926.265.0.0 3.935.946 4.718-.341s-1.33-2.687-2.831-2.999c0 0 3.774.634 4.265-.624s-1.113-2.082-3.34-2.489c0 0 3.114.35 3.567-.738a1.897 1.897.0 00-.878-2.365M373.952 205.726a11.7 11.7.0 014.359 5.392s.312-4.153-3.094-6.197z"/><path fill="#20DF7F" d="M394.247 206.236c.557-11.135 5.029-15.629 11.247-16.178l13.974-.946c3.774.88 13.586 2.772 13.586 2.772 4.067 1.22 6.926 11.855 5.973 17.91s-2.944 10.672-3.501 20.861c.161 9.651.302 11.562.302 15.346-8.689 5.535-32.032 6.689-41.213 1.136.0.0-.16-9.329-.349-15.271-.32-10.189-.207-21.798-.019-25.63"/><path fill="#C8E6C9" d="M409.919 186.482c3.51-.322 6.36-.804 8.341-1.892 1.453-.767 2.708-3.16 3.085-4.012.0.0-.094 3.274-2.047 5.09-2.755 2.564-9.275 2.564-9.275 2.564z"/><path fill="#37474F" d="M397.918 158.997a3.61 3.61.0 00-1.812 3.208 4.74 4.74.0 00.793 2.734 6.03 6.03.0 003.208 2.1c.546.131 1.08.312 1.594.54q.963.687 1.793 1.532c.859.663 1.708 1.344 2.585 1.987a53 53 0 005.444 3.576 39 39 0 005.661 2.668c2.067.767 3.774.095 5.982.294l-.32 5.998s.735-1.381 1.575-3.028c.727-1.419 3.774-8.647 3.774-8.647 1.189-2.838 2.699-5.809 2.519-8.979-.151-2.563-.66-4.815-2.604-5.903-.16-2.952-.83-4.39-2.896-5.97a11.4 11.4.0 00-5.105-1.892 20.7 20.7.0 00-6.199.217c-3.057.492-6.114 1.277-9.208 1.117a14.7 14.7.0 00-4.944.312 5 5 0 00-2.545 1.878 5.04 5.04.0 00-.918 3.032c-.066 1.126.83 2.98 1.623 3.226"/><path fill="#A5A5A5" d="M417.279 159.764c0 1.892 1.736 4.57 4.378 6.878a13.1 13.1.0 00.141 5.279c.162.539.411 1.047.736 1.505a1.52 1.52.0 001.104.7c.613.0.859-.322 1.047-.804q.419-.919.944-1.779.234-.368.538-.681c.943-.861 3.67-1.893 4.944 1.021s-1.114 7.04-3.321 7.655c-3.774 1.069-4.633-1.533-4.633-1.533l.066 12.621c-1.066 3.198-6.973 6.31-11.728 5.677-4.755-.634-3.246-3.511-1.311-5.46l-.246-4.38a18.7 18.7.0 01-5.076-.189c-1.972-.379-3.595-2.233-4.416-5.251a46.1 46.1.0 01-.566-17.522c.717-3.557 1.595-5.09 2.019-5.506.0.775 1.482 3.15 5.322 3.68 4.057.587 7.133-.7 10.058-1.911"/><path fill="#263238" d="M411.759 170.417a1.28 1.28.0 00.783 1.168 1.27 1.27.0 001.379-.262 1.29 1.29.0 00.301-1.375 1.28 1.28.0 00-1.142-.818 1.3 1.3.0 00-.5.092 1.32 1.32.0 00-.714.696 1.3 1.3.0 00-.107.499M412.222 166.245l3.085 1.277a1.753 1.753.0 00-.944-2.233 1.625 1.625.0 00-1.803.398 1.6 1.6.0 00-.338.558"/><path fill="#20DF7F" d="m413.429 177.304-4.717 1.893a2.47 2.47.0 001.322 1.44 2.47 2.47.0 001.952.036 2.66 2.66.0 001.443-3.369"/><path fill="#C8E6C9" d="M410.684 180.625a2 2 0 000 .237 2.43 2.43.0 001.311-.152c.476-.204.88-.544 1.162-.979s.429-.943.423-1.462a2.4 2.4.0 00-.509-.056 2.4 2.4.0 00-1.689.713 2.42 2.42.0 00-.698 1.699"/><path fill="#263238" d="m400.673 167.446 3.047-1.183a1.58 1.58.0 00-.832-.914 1.6 1.6.0 00-1.234-.032 1.667 1.667.0 00-.981 2.129M401.456 170.142a1.3 1.3.0 00.331.946 1.3 1.3.0 00.905.426 1.33 1.33.0 001.29-.746 1.34 1.34.0 00-.209-1.479 1.328 1.328.0 00-2.066.114 1.33 1.33.0 00-.251.739"/><path fill="#37474F" d="m408.23 176.68-4.698-.889 4.434-7.531z"/><path fill="#A5A5A5" d="M433.866 192.111c5.878 1.022 9.435 2.914 10.945 7.569 2.141 6.623 8.133 25.384 9.369 32.054.755 4.097 1.934 6.689-1.529 9.385a245 245 0 01-25.796 16.368c-7.85 4.125-19.7 4.939-19.7 4.939l8.595-5.213 1.529-2.924 22.974-20.407-8.68-25.715s-2.189-13.218 2.293-16.056"/><path fill="#C8E6C9" d="M440.253 233.882a13.05 13.05.0 016.039-1.457s-2.038-1.76-6.539.0z"/><path fill="#20DF7F" d="M433.054 191.884c2.689.501 5.662.795 8.398 2.536 2.736 1.74 3.236 3.85 5.34 10.35s4.586 16.084 4.586 16.084-5.152 4.371-14.021 4.494c0 0-4.369-12.158-5.444-14.863s-3.784-11.429 1.141-18.601"/><path fill="#4CAF4F" d="M423.581 250.287v.814a2.3 2.3.0 01-1.094 2.006l-21.418 13.037a2.31 2.31.0 01-2.274.0l-40.345-22.158a2.32 2.32.0 01-1.179-1.958v-.549l42.638 23.445z"/><path fill="#fff" d="M423.581 250.287v.814a2.3 2.3.0 01-1.094 2.006l-21.418 13.037a2.31 2.31.0 01-2.274.0l-40.345-22.158a2.32 2.32.0 01-1.179-1.958v-.549l42.638 23.445z" opacity=".5"/><path fill="#103E13" d="M423.581 250.287v.814a2.3 2.3.0 01-1.094 2.006l-21.418 13.037a2.31 2.31.0 01-2.274.0l-40.345-22.158a2.32 2.32.0 01-1.179-1.958v-.549l42.638 23.445z" opacity=".1"/><path fill="#4CAF4F" d="m357.261 241.479 23.315-14.192a1.37 1.37.0 011.359.0l41.514 22.82a.303.303.0 010 .521l-23.54 14.333z"/><path fill="#fff" d="m357.261 241.479 23.315-14.192a1.37 1.37.0 011.359.0l41.514 22.82a.303.303.0 010 .521l-23.54 14.333z" opacity=".85"/><path fill="#4CAF4F" d="m399.701 262.7 12.577-7.654-37.344-20.53-12.643 7.616z"/><path fill="#fff" d="m399.701 262.7 12.577-7.654-37.344-20.53-12.643 7.616z" opacity=".6"/><path fill="#4CAF4F" d="m405.89 242.274-.235.142-6.162 3.756-11.246-6.188-.236-.123 6.397-3.898z"/><path fill="#4CAF4F" d="m405.655 242.416-6.161 3.756-11.247-6.188 6.17-3.746z"/><path fill="#fff" d="m405.655 242.416-6.161 3.756-11.247-6.188 6.17-3.746z" opacity=".6"/><path fill="#4CAF4F" d="M399.899 264.924v1.513a2.2 2.2.0 01-1.142-.274l-40.307-22.177a2.32 2.32.0 01-1.179-1.958v-.549z"/><path fill="#fff" d="M399.899 264.924v1.513a2.2 2.2.0 01-1.142-.274l-40.307-22.177a2.32 2.32.0 01-1.179-1.958v-.549z" opacity=".03"/><path fill="#103E13" d="M399.899 264.924v1.513a2.2 2.2.0 01-1.142-.274l-40.307-22.177a2.32 2.32.0 01-1.179-1.958v-.549z" opacity=".2"/><path fill="#4CAF4F" d="M399.267 265.274a2.67 2.67.0 01-2.33-.133l-40.157-22.082a2.73 2.73.0 01-1.358-1.892l-4.907-25.867a2.5 2.5.0 010-.444 2.7 2.7.0 01.755-1.94l41.685 22.953a1.968 1.968.0 011 1.371z"/><path fill="#fff" d="M399.267 265.274a2.67 2.67.0 01-2.33-.133l-40.157-22.082a2.73 2.73.0 01-1.358-1.892l-4.907-25.867a2.5 2.5.0 010-.444 2.7 2.7.0 01.755-1.94l41.685 22.953a1.968 1.968.0 011 1.371z" opacity=".4"/><path fill="#4CAF4F" d="m399.899 264.923-.264.161a2.6 2.6.0 01-.368.189l-5.312-27.995a1.98 1.98.0 00-1-1.372l-41.732-22.952q.238-.256.538-.435l41.826 22.99a2.04 2.04.0 011 1.381z"/><path fill="#000" d="m399.899 264.923-.264.161a2.6 2.6.0 01-.368.189l-5.312-27.995a1.98 1.98.0 00-1-1.372l-41.732-22.952q.238-.256.538-.435l41.826 22.99a2.04 2.04.0 011 1.381z" opacity=".6"/><path fill="#4CAF4F" d="m393.568 236.427.623-.379c.197.245.333.534.396.842l5.312 28.034-.264.16a3 3 0 01-.368.19l-5.312-27.996a2 2 0 00-.387-.851"/><path fill="#fff" d="m393.568 236.427.623-.379c.197.245.333.534.396.842l5.312 28.034-.264.16a3 3 0 01-.368.19l-5.312-27.996a2 2 0 00-.387-.851" opacity=".5"/><path fill="#103E13" d="m393.568 236.427.623-.379c.197.245.333.534.396.842l5.312 28.034-.264.16a3 3 0 01-.368.19l-5.312-27.996a2 2 0 00-.387-.851" opacity=".1"/><path fill="#455A64" d="M376.406 241.801a8.8 8.8.0 00-4.114-5.071c-1.934-1.06-3.246-.53-2.916 1.211.331 1.74 2.17 3.992 4.114 5.061s3.246.53 2.916-1.201"/><path fill="#A5A5A5" d="M424.364 247.998c-2.245 1.58-5.274.302-8.255.662-2.982.359-5.529 1.097-7.926 1.031-2.396-.066-3.566.416-1.887 2.337 1.68 1.921 6.482.814 7.784 1.4a2.836 2.836.0 011.262 3.337 2.84 2.84.0 01-.658 1.091c-1.406 1.637 8.001-1.523 9.256-3.463 1.255-1.939 2.123-6.149.424-6.395"/><g clip-path="url(#a)"><mask id="b" width="340" height="341" x="0" y="0" maskUnits="userSpaceOnUse" style="mask-type:luminance"><path fill="#fff" d="M339.25.54H.25v340h339z"/></mask><g mask="url(#b)"><path fill="#62DD9F" fill-opacity=".88" fill-rule="evenodd" d="M74.068 22.292a3.603 3.603.0 013.598-3.608h11.788a3.603 3.603.0 013.598 3.608c0 1.633 1.1 3.045 2.636 3.587a36.4 36.4.0 0111.629 6.743c1.237 1.064 3.008 1.313 4.42.496a3.6 3.6.0 014.923 1.323l5.89 10.232a3.617 3.617.0 01-1.318 4.932c-1.409.816-2.078 2.476-1.781 4.08.406 2.185.618 4.439.618 6.742a37 37 0 01-.618 6.741c-.297 1.604.372 3.264 1.781 4.08a3.617 3.617.0 011.318 4.932l-5.89 10.232a3.6 3.6.0 01-4.923 1.323c-1.412-.817-3.183-.568-4.42.496a36.4 36.4.0 01-11.63 6.744c-1.535.542-2.635 1.953-2.635 3.586.0 1.993-1.61 3.609-3.598 3.609H77.666a3.604 3.604.0 01-3.598-3.61c0-1.632-1.1-3.043-2.635-3.585a36.5 36.5.0 01-11.63-6.744c-1.237-1.064-3.008-1.313-4.42-.496a3.6 3.6.0 01-4.923-1.323L44.57 76.18a3.617 3.617.0 011.318-4.932c1.409-.816 2.078-2.476 1.78-4.08a37 37 0 01-.617-6.741c0-2.303.212-4.557.618-6.742.297-1.604-.372-3.264-1.781-4.08a3.617 3.617.0 01-1.318-4.932l5.89-10.232a3.6 3.6.0 014.924-1.323c1.411.817 3.182.568 4.42-.496a36.4 36.4.0 0111.629-6.743c1.535-.542 2.635-1.954 2.635-3.587m30.326 38.135c0 11.762-9.317 21.297-20.81 21.297s-20.81-9.535-20.81-21.297 9.317-21.298 20.81-21.298 20.81 9.535 20.81 21.298m60.982-21.769a2.046 2.046.0 012.813-.699l5.751 3.477c.97.587 1.281 1.85.697 2.822-.478.797-.356 1.81.234 2.527a20.8 20.8.0 013.696 6.72c.292.884 1.083 1.528 2.011 1.545a2.056 2.056.0 012.014 2.098l-.127 6.73a2.053 2.053.0 01-2.089 2.017c-.927-.018-1.74.594-2.065 1.465a21.06 21.06.0 01-3.954 6.578c-.616.694-.775 1.701-.328 2.515a2.06 2.06.0 01-.803 2.795l-5.874 3.254a2.05 2.05.0 01-2.79-.807c-.449-.815-1.385-1.216-2.301-1.061a20.7 20.7.0 01-7.651-.14c-.907-.19-1.859.175-2.337.971a2.046 2.046.0 01-2.813.7l-5.751-3.478a2.06 2.06.0 01-.697-2.822c.478-.796.356-1.809-.234-2.526a20.8 20.8.0 01-3.696-6.72c-.292-.884-1.083-1.528-2.011-1.546a2.056 2.056.0 01-2.014-2.098l.127-6.729a2.053 2.053.0 012.089-2.017c.927.017 1.74-.595 2.065-1.465a21.06 21.06.0 013.954-6.578c.616-.694.775-1.702.328-2.515a2.06 2.06.0 01.803-2.795l5.874-3.254a2.05 2.05.0 012.79.806c.449.816 1.385 1.216 2.301 1.062a20.7 20.7.0 017.651.14c.907.19 1.859-.175 2.337-.972m3.521 27.494c-3.354 5.579-10.582 7.375-16.145 4.012s-7.354-10.613-4-16.192 10.582-7.376 16.145-4.012c5.563 3.363 7.354 10.613 4 16.192m46.068-22.878a1.05 1.05.0 011.422.445l1.606 3.066a1.06 1.06.0 01-.443 1.427c-.423.222-.637.7-.568 1.174a10.7 10.7.0 01-.161 3.943c-.106.466.07.96.474 1.217.492.312.64.966.329 1.46l-1.845 2.926c-.31.493-.961.64-1.454.329-.403-.256-.923-.204-1.297.092a10.8 10.8.0 01-3.486 1.836c-.456.141-.794.541-.813 1.019a1.056 1.056.0 01-1.096 1.014l-3.447-.138a1.057 1.057.0 01-1.013-1.1c.019-.48-.287-.906-.73-1.083a10.7 10.7.0 01-3.328-2.106c-.349-.326-.863-.42-1.286-.197a1.05 1.05.0 01-1.422-.445l-1.606-3.066a1.06 1.06.0 01.443-1.427c.422-.222.637-.7.568-1.174a10.8 10.8.0 01.161-3.943c.106-.466-.07-.96-.474-1.217a1.063 1.063.0 01-.329-1.46l1.845-2.926c.31-.493.962-.64 1.454-.329.403.256.923.204 1.297-.092a10.7 10.7.0 013.486-1.836c.456-.141.793-.541.813-1.019a1.056 1.056.0 011.096-1.014l3.447.138a1.057 1.057.0 011.013 1.1c-.019.48.287.906.73 1.083a10.7 10.7.0 013.328 2.106c.349.326.863.42 1.286.197m-5.757 13.032a6.04 6.04.0 01-8.165-2.55c-1.553-2.966-.415-6.633 2.543-8.19a6.04 6.04.0 018.165 2.55c1.553 2.966.415 6.633-2.543 8.19M62.168 215.542a1.66 1.66.0 012.28-.565l4.658 2.816a1.67 1.67.0 01.565 2.286c-.388.645-.288 1.465.19 2.047a16.9 16.9.0 012.994 5.443c.236.716.876 1.238 1.629 1.252a1.666 1.666.0 011.631 1.7l-.103 5.451a1.663 1.663.0 01-1.692 1.634c-.75-.014-1.41.482-1.673 1.187-.359.961-.81 1.901-1.358 2.811a17 17 0 01-1.845 2.517c-.499.564-.628 1.379-.265 2.038a1.67 1.67.0 01-.651 2.265l-4.758 2.636a1.66 1.66.0 01-2.26-.654c-.364-.66-1.123-.985-1.865-.86a16.8 16.8.0 01-6.198-.114c-.735-.153-1.505.142-1.893.788a1.657 1.657.0 01-2.279.565l-4.659-2.816a1.67 1.67.0 01-.564-2.286c.387-.645.288-1.465-.19-2.047a16.9 16.9.0 01-2.994-5.443c-.236-.716-.877-1.238-1.629-1.252a1.666 1.666.0 01-1.631-1.7l.102-5.451a1.663 1.663.0 011.693-1.634c.75.014 1.41-.481 1.673-1.186a17.005 17.005.0 013.203-5.329c.498-.564.628-1.378.265-2.038a1.67 1.67.0 01.65-2.264l4.759-2.637a1.66 1.66.0 012.26.654c.364.66 1.123.985 1.864.861a16.8 16.8.0 016.198.113c.736.153 1.506-.142 1.894-.788m2.853 22.272c-2.717 4.52-8.572 5.975-13.078 3.251-4.507-2.725-5.958-8.598-3.241-13.117s8.572-5.975 13.078-3.251c4.507 2.725 5.957 8.598 3.24 13.117" clip-rule="evenodd"/><path fill="#fff" d="M98.448 85.984c0-4.705 3.803-8.52 8.494-8.52h126.559c4.691.0 8.494 3.815 8.494 8.52V269.14c0 4.704-3.803 8.519-8.494 8.519H106.942c-4.691.0-8.494-3.815-8.494-8.519z"/><path fill="#3E3D3D" fill-rule="evenodd" d="M89.954 79.168c0-5.175 4.183-9.37 9.343-9.37h126.56c5.159.0 9.342 4.195 9.342 9.37v183.158c0 5.175-4.183 9.371-9.342 9.371H99.297c-5.16.0-9.343-4.196-9.343-9.371zm9.343-7.667c-4.222.0-7.644 3.433-7.644 7.667v183.158c0 4.234 3.422 7.667 7.644 7.667h126.56c4.221.0 7.644-3.433 7.644-7.667V79.168c0-4.234-3.423-7.667-7.644-7.667z" clip-rule="evenodd"/><path fill="#3E3D3D" d="M121.381 70.65h83.241l-3.241 9.099a4.25 4.25.0 01-3.999 2.827h-68.761a4.25 4.25.0 01-3.999-2.827z"/><path fill="#F1F1F1" fill-rule="evenodd" d="M180.839 100.04h27.181v27.261h-27.181zm4.247 4.259v18.742h18.686v-18.742z" clip-rule="evenodd"/><path fill="#62DD9F" fill-opacity=".88" d="M116.285 99.614h42.47v143.97h-42.47z"/><path fill="#F1F1F1" fill-rule="evenodd" d="M180.839 157.969h27.181v27.26h-27.181zm4.247 4.259v18.742h18.686v-18.742zm-4.247 53.669h27.181v27.261h-27.181zm4.247 4.26v18.742h18.686v-18.742z" clip-rule="evenodd"/><path fill="#62DD9F" fill-opacity=".88" fill-rule="evenodd" d="M266.995 66.47a5.097 5.097.0 016.062-3.91l49.906 10.872c2.751.599 4.496 3.32 3.899 6.08l-15.556 71.83a5.095 5.095.0 01-6.061 3.91l-49.907-10.871c-2.75-.599-4.496-3.321-3.898-6.08zm5.701-2.245a3.4 3.4.0 00-4.041 2.607L253.1 138.664a3.407 3.407.0 002.599 4.052l49.906 10.871a3.396 3.396.0 004.041-2.606l15.556-71.831a3.407 3.407.0 00-2.599-4.053z" clip-rule="evenodd"/><path fill="#62DD9F" fill-opacity=".88" d="m29.865 109.837 53.294 19.698-28.727 78.182-53.294-19.699z"/><path fill="#D9D9D9" d="m35.724 120.467 35.78 13.23-6.212 16.9-35.78-13.231zm12.423 31.093 14.67 5.424-6.02 16.374-14.67-5.424zm-8.328 22.665 14.67 5.425-6.02 16.374L33.8 190.6zm-12.634-30.041 13.908 5.143-6.02 16.375-13.907-5.143zm-8.328 22.666 13.908 5.143-6.02 16.374-13.907-5.143z"/><path fill="#62DD9F" fill-opacity=".88" d="M236.049 205.249h18.687v38.335h-18.687zm28.03-24.705h18.687v63.04h-18.687zm29.729 11.926h18.686v51.114h-18.686z"/><path fill="#3E3D3D" d="M172.345 71.075c0 5.41-4.374 9.797-9.768 9.797s-9.768-4.386-9.768-9.797c0-5.41 4.373-9.797 9.768-9.797 5.394.0 9.768 4.387 9.768 9.797"/><path fill="#62DD9F" fill-opacity=".88" fill-rule="evenodd" d="m215.675 104.29-21.472 16.387-6.719-11.922 3.698-2.096 4.323 7.672 17.599-13.43z" clip-rule="evenodd"/><path fill="#62DD9F" fill-opacity=".88" d="M250.456 74.393a4.26 4.26.0 013.351-5l50.117-9.85a4.247 4.247.0 014.984 3.36l14.096 72.133a4.26 4.26.0 01-3.35 4.999l-50.117 9.852a4.25 4.25.0 01-4.985-3.36z"/><path fill="#fff" fill-rule="evenodd" d="m302.136 80.072-38.38 7.718-.334-1.67 38.38-7.719zm2.916 14.584-38.381 7.718-.333-1.671 38.379-7.718zm2.915 14.584-38.379 7.718-.335-1.67 38.379-7.719zm2.858 14.298-38.38 7.718-.333-1.67 38.379-7.718z" clip-rule="evenodd"/></g></g><defs><clipPath id="a"><path fill="#fff" d="M.25.54h339v340H.25z"/></clipPath></defs></svg>