<svg xmlns="http://www.w3.org/2000/svg" width="149" height="79" fill="none"><path fill="#128C76" d="M74.663-69.49c40.9.0 74.18 33.28 74.18 74.18s-33.28 74.18-74.18 74.18S.483 45.59.483 4.69c.01-40.9 33.28-74.18 74.18-74.18m0 145.17c39.15.0 70.99-31.85 70.99-70.99.0-39.15-31.85-70.99-70.99-70.99S3.673-34.45 3.673 4.69s31.85 70.99 70.99 70.99"/><path fill="#128C76" d="M74.663-59.12c35.18.0 63.81 28.62 63.81 63.81.0 35.18-28.62 63.81-63.81 63.81-35.18.0-63.81-28.62-63.81-63.81.01-35.19 28.63-63.81 63.81-63.81m0 124.43c33.43.0 60.62-27.2 60.62-60.62.0-33.43-27.2-60.62-60.62-60.62s-60.62 27.2-60.62 60.62 27.2 60.62 60.62 60.62"/><path fill="#128C76" d="M74.663-48.75c29.47.0 53.44 23.97 53.44 53.44s-23.97 53.44-53.44 53.44-53.44-23.97-53.44-53.44c.01-29.47 23.98-53.44 53.44-53.44m0 103.69c27.71.0 50.25-22.54 50.25-50.25s-22.54-50.26-50.25-50.26-50.25 22.54-50.25 50.26c0 27.71 22.54 50.25 50.25 50.25"/><path fill="#128C76" d="M74.663-38.38c23.75.0 43.07 19.32 43.07 43.07s-19.32 43.07-43.07 43.07-43.07-19.32-43.07-43.07 19.33-43.07 43.07-43.07m0 82.95c21.99.0 39.89-17.89 39.89-39.89.0-21.99-17.89-39.89-39.89-39.89s-39.89 17.89-39.89 39.89c.01 22 17.9 39.89 39.89 39.89"/></svg>