<svg xmlns="http://www.w3.org/2000/svg" width="37" height="36" fill="none"><path fill="#fff" d="M18.361 35.996c9.88.0 17.888-8.01 17.888-17.888C36.25 8.228 28.24.219 18.361.219S.473 8.23.473 18.108 8.482 35.996 18.36 35.996"/><path fill="#20DF7F" fill-rule="evenodd" d="m16.036 22.848 2.415-1.342.089.09a3.27 3.27.0 01.268-2.236l-1.52-1.431c-1.163.805-2.773.715-3.757-.269-1.252-1.163-1.341-3.13-.179-4.382 1.163-1.253 3.041-1.253 4.294-.09.089.0.089.0.089.09l2.326-1.163c-.358-1.342.268-2.773 1.61-3.399 1.43-.805 3.309-.179 4.114 1.252.715 1.52.179 3.399-1.342 4.115-1.341.715-2.862.357-3.756-.716L18.54 14.53c.179.805.09 1.61-.268 2.325l1.52 1.431a3.11 3.11.0 013.757.358c1.252 1.163 1.341 3.041.179 4.293-1.163 1.252-3.13 1.342-4.294.18l-.268-.27-2.504 1.253c.358 1.342-.269 2.773-1.61 3.399-1.431.805-3.31.179-4.114-1.252-.716-1.521-.18-3.4 1.341-4.115 1.342-.715 2.862-.358 3.757.716m.09-5.903v-.09h.178v-.09h.179v-.089h.09v-.09h.089v-.088h.09v-.09h.089v-.09h.089v-.089l.09-.09v-.089l.089-.09v-.179c.179-.536.0-1.162-.447-1.609-.626-.537-1.7-.537-2.236.09-.626.715-.626 1.699.09 2.325.446.447 1.072.537 1.61.358m4.292 5.098c-.447-.447-.626-1.073-.447-1.61v-.269h.09v-.089l.089-.09v-.089h.09c0-.09.0-.09.089-.09v-.089h.09v-.09h.089v-.089h.179v-.089h.089v-.09h.179c.537-.178 1.163-.089 1.61.358.447.358.626.984.447 1.61v.18h-.09v.178h-.089v.09h-.09v.089l-.089.09-.09.089v.09h-.179v.089h-.088v.09h-.18v.089h-.089c-.537.178-1.163.089-1.61-.358m3.31-9.213c-.537.269-1.163.18-1.61-.09l-.09-.088h-.09v-.09h-.089v-.09h-.09v-.089l-.089-.09v-.089h-.089v-.179h-.09v-.358h-.089V11.4c0-.626.358-1.162.895-1.43.536-.27 1.162-.18 1.699.089v.09h.09v.089h.089v.089h.09v.09h.089v.179h.09v.089l.088.09v.179h.09v.447c0 .625-.268 1.162-.894 1.43M12.995 23.384c.715-.447 1.699-.089 2.146.716.358.805.09 1.7-.715 2.146a1.533 1.533.0 01-2.147-.715c-.447-.805-.09-1.7.716-2.147" clip-rule="evenodd"/></svg>